<svg width="86" height="29" viewBox="0 0 86 29" fill="none" xmlns="http://www.w3.org/2000/svg">
<rect width="86" height="29" rx="14.5" fill="#1AD598" fill-opacity="0.2"/>
<path d="M25.125 11.375L19.875 16.625L17.875 13.625L13.875 17.625" fill="#38B52B"/>
<path d="M25.125 11.375L19.875 16.625L17.875 13.625L13.875 17.625" stroke="#1AD598" stroke-width="1.5" stroke-linecap="round" stroke-linejoin="round"/>
<path d="M22.625 11.375H25.125V13.875" fill="#38B52B"/>
<path d="M22.625 11.375H25.125V13.875" stroke="#1AD598" stroke-width="1.5" stroke-linecap="round" stroke-linejoin="round"/>
<path d="M42.696 15.165H40.239V17.687H38.523V15.165H36.066V13.579H38.523V11.057H40.239V13.579H42.696V15.165ZM50.8188 11.096H46.6068V13.319C46.7888 13.0937 47.0488 12.9117 47.3868 12.773C47.7248 12.6257 48.0844 12.552 48.4658 12.552C49.1591 12.552 49.7268 12.7037 50.1688 13.007C50.6108 13.3103 50.9314 13.7003 51.1308 14.177C51.3301 14.645 51.4298 15.1477 51.4298 15.685C51.4298 16.6817 51.1438 17.4833 50.5718 18.09C50.0084 18.6967 49.2024 19 48.1538 19C47.1658 19 46.3771 18.753 45.7878 18.259C45.1984 17.765 44.8648 17.1193 44.7868 16.322H46.5548C46.6328 16.6687 46.8061 16.946 47.0748 17.154C47.3521 17.362 47.7031 17.466 48.1278 17.466C48.6391 17.466 49.0248 17.3057 49.2848 16.985C49.5448 16.6643 49.6748 16.2397 49.6748 15.711C49.6748 15.1737 49.5404 14.7663 49.2718 14.489C49.0118 14.203 48.6261 14.06 48.1148 14.06C47.7508 14.06 47.4474 14.151 47.2048 14.333C46.9621 14.515 46.7888 14.7577 46.6848 15.061H44.9428V9.497H50.8188V11.096ZM55.012 17.089L53.491 20.742H52.321L53.166 17.089H55.012ZM62.1478 10.901L58.6898 19H56.8438L60.3278 11.109H55.8818V9.549H62.1478V10.901ZM63.0298 11.85C63.0298 11.1913 63.2205 10.6757 63.6018 10.303C63.9918 9.93033 64.4902 9.744 65.0968 9.744C65.7035 9.744 66.1975 9.93033 66.5788 10.303C66.9688 10.6757 67.1638 11.1913 67.1638 11.85C67.1638 12.5173 66.9688 13.0373 66.5788 13.41C66.1975 13.7827 65.7035 13.969 65.0968 13.969C64.4902 13.969 63.9918 13.7827 63.6018 13.41C63.2205 13.0373 63.0298 12.5173 63.0298 11.85ZM71.3758 9.9L66.2668 19H64.4988L69.5948 9.9H71.3758ZM65.0838 10.836C64.6072 10.836 64.3688 11.174 64.3688 11.85C64.3688 12.5347 64.6072 12.877 65.0838 12.877C65.3178 12.877 65.4998 12.7947 65.6298 12.63C65.7598 12.4567 65.8248 12.1967 65.8248 11.85C65.8248 11.174 65.5778 10.836 65.0838 10.836ZM68.7368 17.037C68.7368 16.3697 68.9275 15.854 69.3088 15.49C69.6988 15.1173 70.1972 14.931 70.8038 14.931C71.4105 14.931 71.9002 15.1173 72.2728 15.49C72.6542 15.854 72.8448 16.3697 72.8448 17.037C72.8448 17.7043 72.6542 18.2243 72.2728 18.597C71.9002 18.9697 71.4105 19.156 70.8038 19.156C70.1885 19.156 69.6902 18.9697 69.3088 18.597C68.9275 18.2243 68.7368 17.7043 68.7368 17.037ZM70.7908 16.023C70.2968 16.023 70.0498 16.361 70.0498 17.037C70.0498 17.7217 70.2968 18.064 70.7908 18.064C71.2762 18.064 71.5188 17.7217 71.5188 17.037C71.5188 16.361 71.2762 16.023 70.7908 16.023Z" fill="#38B52B"/>
</svg>
