<svg width="763" height="402" viewBox="0 0 763 402" fill="none" xmlns="http://www.w3.org/2000/svg">
<path fill-rule="evenodd" clip-rule="evenodd" d="M36.8262 332.01V330.98H751.255V332.011L36.8262 332.01ZM37.5713 271.02V269.99H752V271.02H37.5713ZM37.5713 211.03V209.99H752V211.03H37.5713ZM36.8262 148.009V146.979H751.255V148.009H36.8262ZM37.5713 87.0203V85.9902H752V87.0203H37.5713ZM37.5713 27.03V26H752V27.03H37.5713Z" fill="#D9E1E7" fill-opacity="0.4"/>
<path d="M7.602 25.488H3.066V27.882C3.262 27.6393 3.542 27.4433 3.906 27.294C4.27 27.1353 4.65733 27.056 5.068 27.056C5.81467 27.056 6.426 27.2193 6.902 27.546C7.378 27.8727 7.72333 28.2927 7.938 28.806C8.15267 29.31 8.26 29.8513 8.26 30.43C8.26 31.5033 7.952 32.3667 7.336 33.02C6.72933 33.6733 5.86133 34 4.732 34C3.668 34 2.81867 33.734 2.184 33.202C1.54933 32.67 1.19 31.9747 1.106 31.116H3.01C3.094 31.4893 3.28067 31.788 3.57 32.012C3.86867 32.236 4.24667 32.348 4.704 32.348C5.25467 32.348 5.67 32.1753 5.95 31.83C6.23 31.4847 6.37 31.0273 6.37 30.458C6.37 29.8793 6.22533 29.4407 5.936 29.142C5.656 28.834 5.24067 28.68 4.69 28.68C4.298 28.68 3.97133 28.778 3.71 28.974C3.44867 29.17 3.262 29.4313 3.15 29.758H1.274V23.766H7.602V25.488ZM9.75177 28.764C9.75177 27.1493 10.0411 25.8847 10.6198 24.97C11.2078 24.0553 12.1784 23.598 13.5318 23.598C14.8851 23.598 15.8511 24.0553 16.4298 24.97C17.0178 25.8847 17.3118 27.1493 17.3118 28.764C17.3118 30.388 17.0178 31.662 16.4298 32.586C15.8511 33.51 14.8851 33.972 13.5318 33.972C12.1784 33.972 11.2078 33.51 10.6198 32.586C10.0411 31.662 9.75177 30.388 9.75177 28.764ZM15.3798 28.764C15.3798 28.0733 15.3331 27.4947 15.2398 27.028C15.1558 26.552 14.9784 26.1647 14.7078 25.866C14.4464 25.5673 14.0544 25.418 13.5318 25.418C13.0091 25.418 12.6124 25.5673 12.3418 25.866C12.0804 26.1647 11.9031 26.552 11.8098 27.028C11.7258 27.4947 11.6838 28.0733 11.6838 28.764C11.6838 29.4733 11.7258 30.0707 11.8098 30.556C11.8938 31.032 12.0711 31.4193 12.3418 31.718C12.6124 32.0073 13.0091 32.152 13.5318 32.152C14.0544 32.152 14.4511 32.0073 14.7218 31.718C14.9924 31.4193 15.1698 31.032 15.2538 30.556C15.3378 30.0707 15.3798 29.4733 15.3798 28.764ZM23.6185 34L20.9865 30.696V34H19.0265V23.64H20.9865V29.534L23.5905 26.244H26.1385L22.7225 30.136L26.1665 34H23.6185Z" fill="#999999"/>
<path d="M0.658 93.012V91.472L5.236 84.92H7.518V91.304H8.75V93.012H7.518V95H5.558V93.012H0.658ZM5.684 87.02L2.814 91.304H5.684V87.02ZM9.99786 89.764C9.99786 88.1493 10.2872 86.8847 10.8659 85.97C11.4539 85.0553 12.4245 84.598 13.7779 84.598C15.1312 84.598 16.0972 85.0553 16.6759 85.97C17.2639 86.8847 17.5579 88.1493 17.5579 89.764C17.5579 91.388 17.2639 92.662 16.6759 93.586C16.0972 94.51 15.1312 94.972 13.7779 94.972C12.4245 94.972 11.4539 94.51 10.8659 93.586C10.2872 92.662 9.99786 91.388 9.99786 89.764ZM15.6259 89.764C15.6259 89.0733 15.5792 88.4947 15.4859 88.028C15.4019 87.552 15.2245 87.1647 14.9539 86.866C14.6925 86.5673 14.3005 86.418 13.7779 86.418C13.2552 86.418 12.8585 86.5673 12.5879 86.866C12.3265 87.1647 12.1492 87.552 12.0559 88.028C11.9719 88.4947 11.9299 89.0733 11.9299 89.764C11.9299 90.4733 11.9719 91.0707 12.0559 91.556C12.1399 92.032 12.3172 92.4193 12.5879 92.718C12.8585 93.0073 13.2552 93.152 13.7779 93.152C14.3005 93.152 14.6972 93.0073 14.9679 92.718C15.2385 92.4193 15.4159 92.032 15.4999 91.556C15.5839 91.0707 15.6259 90.4733 15.6259 89.764ZM23.8646 95L21.2326 91.696V95H19.2726V84.64H21.2326V90.534L23.8366 87.244H26.3846L22.9686 91.136L26.4126 95H23.8646Z" fill="#999999"/>
<path d="M0.77 148.482C0.816667 147.549 1.14333 146.83 1.75 146.326C2.366 145.813 3.17333 145.556 4.172 145.556C4.85333 145.556 5.43667 145.677 5.922 145.92C6.40733 146.153 6.77133 146.475 7.014 146.886C7.266 147.287 7.392 147.745 7.392 148.258C7.392 148.846 7.238 149.345 6.93 149.756C6.63133 150.157 6.272 150.428 5.852 150.568V150.624C6.39333 150.792 6.81333 151.091 7.112 151.52C7.42 151.949 7.574 152.5 7.574 153.172C7.574 153.732 7.44333 154.231 7.182 154.67C6.93 155.109 6.552 155.454 6.048 155.706C5.55333 155.949 4.956 156.07 4.256 156.07C3.20133 156.07 2.34267 155.804 1.68 155.272C1.01733 154.74 0.667333 153.956 0.63 152.92H2.534C2.55267 153.377 2.70667 153.746 2.996 154.026C3.29467 154.297 3.70067 154.432 4.214 154.432C4.69 154.432 5.054 154.301 5.306 154.04C5.56733 153.769 5.698 153.424 5.698 153.004C5.698 152.444 5.52067 152.043 5.166 151.8C4.81133 151.557 4.26067 151.436 3.514 151.436H3.108V149.826H3.514C4.83933 149.826 5.502 149.383 5.502 148.496C5.502 148.095 5.38067 147.782 5.138 147.558C4.90467 147.334 4.564 147.222 4.116 147.222C3.67733 147.222 3.33667 147.343 3.094 147.586C2.86067 147.819 2.72533 148.118 2.688 148.482H0.77ZM9.12286 150.764C9.12286 149.149 9.41219 147.885 9.99086 146.97C10.5789 146.055 11.5495 145.598 12.9029 145.598C14.2562 145.598 15.2222 146.055 15.8009 146.97C16.3889 147.885 16.6829 149.149 16.6829 150.764C16.6829 152.388 16.3889 153.662 15.8009 154.586C15.2222 155.51 14.2562 155.972 12.9029 155.972C11.5495 155.972 10.5789 155.51 9.99086 154.586C9.41219 153.662 9.12286 152.388 9.12286 150.764ZM14.7509 150.764C14.7509 150.073 14.7042 149.495 14.6109 149.028C14.5269 148.552 14.3495 148.165 14.0789 147.866C13.8175 147.567 13.4255 147.418 12.9029 147.418C12.3802 147.418 11.9835 147.567 11.7129 147.866C11.4515 148.165 11.2742 148.552 11.1809 149.028C11.0969 149.495 11.0549 150.073 11.0549 150.764C11.0549 151.473 11.0969 152.071 11.1809 152.556C11.2649 153.032 11.4422 153.419 11.7129 153.718C11.9835 154.007 12.3802 154.152 12.9029 154.152C13.4255 154.152 13.8222 154.007 14.0929 153.718C14.3635 153.419 14.5409 153.032 14.6249 152.556C14.7089 152.071 14.7509 151.473 14.7509 150.764ZM22.9896 156L20.3576 152.696V156H18.3976V145.64H20.3576V151.534L22.9616 148.244H25.5096L22.0936 152.136L25.5376 156H22.9896Z" fill="#999999"/>
<path d="M1.358 214.788C2.254 214.041 2.968 213.421 3.5 212.926C4.032 212.422 4.47533 211.899 4.83 211.358C5.18467 210.817 5.362 210.285 5.362 209.762C5.362 209.286 5.25 208.913 5.026 208.642C4.802 208.371 4.45667 208.236 3.99 208.236C3.52333 208.236 3.164 208.395 2.912 208.712C2.66 209.02 2.52933 209.445 2.52 209.986H0.616C0.653333 208.866 0.984667 208.017 1.61 207.438C2.24467 206.859 3.04733 206.57 4.018 206.57C5.082 206.57 5.89867 206.855 6.468 207.424C7.03733 207.984 7.322 208.726 7.322 209.65C7.322 210.378 7.126 211.073 6.734 211.736C6.342 212.399 5.894 212.977 5.39 213.472C4.886 213.957 4.228 214.545 3.416 215.236H7.546V216.86H0.63V215.404L1.358 214.788ZM8.78106 211.764C8.78106 210.149 9.0704 208.885 9.64906 207.97C10.2371 207.055 11.2077 206.598 12.5611 206.598C13.9144 206.598 14.8804 207.055 15.4591 207.97C16.0471 208.885 16.3411 210.149 16.3411 211.764C16.3411 213.388 16.0471 214.662 15.4591 215.586C14.8804 216.51 13.9144 216.972 12.5611 216.972C11.2077 216.972 10.2371 216.51 9.64906 215.586C9.0704 214.662 8.78106 213.388 8.78106 211.764ZM14.4091 211.764C14.4091 211.073 14.3624 210.495 14.2691 210.028C14.1851 209.552 14.0077 209.165 13.7371 208.866C13.4757 208.567 13.0837 208.418 12.5611 208.418C12.0384 208.418 11.6417 208.567 11.3711 208.866C11.1097 209.165 10.9324 209.552 10.8391 210.028C10.7551 210.495 10.7131 211.073 10.7131 211.764C10.7131 212.473 10.7551 213.071 10.8391 213.556C10.9231 214.032 11.1004 214.419 11.3711 214.718C11.6417 215.007 12.0384 215.152 12.5611 215.152C13.0837 215.152 13.4804 215.007 13.7511 214.718C14.0217 214.419 14.1991 214.032 14.2831 213.556C14.3671 213.071 14.4091 212.473 14.4091 211.764ZM22.6478 217L20.0158 213.696V217H18.0558V206.64H20.0158V212.534L22.6198 209.244H25.1678L21.7518 213.136L25.1958 217H22.6478Z" fill="#999999"/>
<path d="M0.504 269.6V267.794H3.878V278H1.862V269.6H0.504ZM5.81427 272.764C5.81427 271.149 6.1036 269.885 6.68227 268.97C7.27027 268.055 8.24093 267.598 9.59427 267.598C10.9476 267.598 11.9136 268.055 12.4923 268.97C13.0803 269.885 13.3743 271.149 13.3743 272.764C13.3743 274.388 13.0803 275.662 12.4923 276.586C11.9136 277.51 10.9476 277.972 9.59427 277.972C8.24093 277.972 7.27027 277.51 6.68227 276.586C6.1036 275.662 5.81427 274.388 5.81427 272.764ZM11.4423 272.764C11.4423 272.073 11.3956 271.495 11.3023 271.028C11.2183 270.552 11.0409 270.165 10.7703 269.866C10.5089 269.567 10.1169 269.418 9.59427 269.418C9.0716 269.418 8.67493 269.567 8.40427 269.866C8.14293 270.165 7.9656 270.552 7.87227 271.028C7.78827 271.495 7.74627 272.073 7.74627 272.764C7.74627 273.473 7.78827 274.071 7.87227 274.556C7.95627 275.032 8.1336 275.419 8.40427 275.718C8.67493 276.007 9.0716 276.152 9.59427 276.152C10.1169 276.152 10.5136 276.007 10.7843 275.718C11.0549 275.419 11.2323 275.032 11.3163 274.556C11.4003 274.071 11.4423 273.473 11.4423 272.764ZM19.681 278L17.049 274.696V278H15.089V267.64H17.049V273.534L19.653 270.244H22.201L18.785 274.136L22.229 278H19.681Z" fill="#999999"/>
<path d="M0.742 333.764C0.742 332.149 1.03133 330.885 1.61 329.97C2.198 329.055 3.16867 328.598 4.522 328.598C5.87533 328.598 6.84133 329.055 7.42 329.97C8.008 330.885 8.302 332.149 8.302 333.764C8.302 335.388 8.008 336.662 7.42 337.586C6.84133 338.51 5.87533 338.972 4.522 338.972C3.16867 338.972 2.198 338.51 1.61 337.586C1.03133 336.662 0.742 335.388 0.742 333.764ZM6.37 333.764C6.37 333.073 6.32333 332.495 6.23 332.028C6.146 331.552 5.96867 331.165 5.698 330.866C5.43667 330.567 5.04467 330.418 4.522 330.418C3.99933 330.418 3.60267 330.567 3.332 330.866C3.07067 331.165 2.89333 331.552 2.8 332.028C2.716 332.495 2.674 333.073 2.674 333.764C2.674 334.473 2.716 335.071 2.8 335.556C2.884 336.032 3.06133 336.419 3.332 336.718C3.60267 337.007 3.99933 337.152 4.522 337.152C5.04467 337.152 5.44133 337.007 5.712 336.718C5.98267 336.419 6.16 336.032 6.244 335.556C6.328 335.071 6.37 334.473 6.37 333.764Z" fill="#999999"/>
<path d="M48.3632 368.228V375.088C48.3632 376.04 48.0879 376.782 47.5372 377.314C46.9866 377.837 46.2492 378.098 45.3252 378.098C44.3919 378.098 43.6359 377.827 43.0572 377.286C42.4879 376.745 42.2032 375.989 42.2032 375.018H44.1632C44.1726 375.438 44.2706 375.765 44.4572 375.998C44.6532 376.231 44.9332 376.348 45.2972 376.348C45.6519 376.348 45.9226 376.236 46.1092 376.012C46.2959 375.788 46.3892 375.48 46.3892 375.088V368.228H48.3632ZM50.1456 374.094C50.1456 373.31 50.2996 372.615 50.6076 372.008C50.9249 371.401 51.3496 370.935 51.8816 370.608C52.4229 370.281 53.0249 370.118 53.6876 370.118C54.2663 370.118 54.7703 370.235 55.1996 370.468C55.6383 370.701 55.9883 370.995 56.2496 371.35V370.244H58.2236V378H56.2496V376.866C55.9976 377.23 55.6476 377.533 55.1996 377.776C54.7609 378.009 54.2523 378.126 53.6736 378.126C53.0203 378.126 52.4229 377.958 51.8816 377.622C51.3496 377.286 50.9249 376.815 50.6076 376.208C50.2996 375.592 50.1456 374.887 50.1456 374.094ZM56.2496 374.122C56.2496 373.646 56.1563 373.24 55.9696 372.904C55.7829 372.559 55.5309 372.297 55.2136 372.12C54.8963 371.933 54.5556 371.84 54.1916 371.84C53.8276 371.84 53.4916 371.929 53.1836 372.106C52.8756 372.283 52.6236 372.545 52.4276 372.89C52.2409 373.226 52.1476 373.627 52.1476 374.094C52.1476 374.561 52.2409 374.971 52.4276 375.326C52.6236 375.671 52.8756 375.937 53.1836 376.124C53.5009 376.311 53.8369 376.404 54.1916 376.404C54.5556 376.404 54.8963 376.315 55.2136 376.138C55.5309 375.951 55.7829 375.69 55.9696 375.354C56.1563 375.009 56.2496 374.598 56.2496 374.122ZM64.4359 370.132C65.3599 370.132 66.1065 370.426 66.6759 371.014C67.2452 371.593 67.5299 372.405 67.5299 373.45V378H65.5699V373.716C65.5699 373.1 65.4159 372.629 65.1079 372.302C64.7999 371.966 64.3799 371.798 63.8479 371.798C63.3065 371.798 62.8772 371.966 62.5599 372.302C62.2519 372.629 62.0979 373.1 62.0979 373.716V378H60.1379V370.244H62.0979V371.21C62.3592 370.874 62.6905 370.613 63.0919 370.426C63.5025 370.23 63.9505 370.132 64.4359 370.132Z" fill="#999999"/>
<path d="M107.699 368.228V369.81H103.625V372.316H106.747V373.87H103.625V378H101.665V368.228H107.699ZM116.299 373.954C116.299 374.234 116.28 374.486 116.243 374.71H110.573C110.62 375.27 110.816 375.709 111.161 376.026C111.506 376.343 111.931 376.502 112.435 376.502C113.163 376.502 113.681 376.189 113.989 375.564H116.103C115.879 376.311 115.45 376.927 114.815 377.412C114.18 377.888 113.401 378.126 112.477 378.126C111.73 378.126 111.058 377.963 110.461 377.636C109.873 377.3 109.411 376.829 109.075 376.222C108.748 375.615 108.585 374.915 108.585 374.122C108.585 373.319 108.748 372.615 109.075 372.008C109.402 371.401 109.859 370.935 110.447 370.608C111.035 370.281 111.712 370.118 112.477 370.118C113.214 370.118 113.872 370.277 114.451 370.594C115.039 370.911 115.492 371.364 115.809 371.952C116.136 372.531 116.299 373.198 116.299 373.954ZM114.269 373.394C114.26 372.89 114.078 372.489 113.723 372.19C113.368 371.882 112.934 371.728 112.421 371.728C111.936 371.728 111.525 371.877 111.189 372.176C110.862 372.465 110.662 372.871 110.587 373.394H114.269ZM119.69 371.378C119.942 371.005 120.287 370.701 120.726 370.468C121.174 370.235 121.682 370.118 122.252 370.118C122.914 370.118 123.512 370.281 124.044 370.608C124.585 370.935 125.01 371.401 125.318 372.008C125.635 372.605 125.794 373.301 125.794 374.094C125.794 374.887 125.635 375.592 125.318 376.208C125.01 376.815 124.585 377.286 124.044 377.622C123.512 377.958 122.914 378.126 122.252 378.126C121.673 378.126 121.164 378.014 120.726 377.79C120.296 377.557 119.951 377.258 119.69 376.894V378H117.73V367.64H119.69V371.378ZM123.792 374.094C123.792 373.627 123.694 373.226 123.498 372.89C123.311 372.545 123.059 372.283 122.742 372.106C122.434 371.929 122.098 371.84 121.734 371.84C121.379 371.84 121.043 371.933 120.726 372.12C120.418 372.297 120.166 372.559 119.97 372.904C119.783 373.249 119.69 373.655 119.69 374.122C119.69 374.589 119.783 374.995 119.97 375.34C120.166 375.685 120.418 375.951 120.726 376.138C121.043 376.315 121.379 376.404 121.734 376.404C122.098 376.404 122.434 376.311 122.742 376.124C123.059 375.937 123.311 375.671 123.498 375.326C123.694 374.981 123.792 374.57 123.792 374.094Z" fill="#999999"/>
<path d="M170.319 368.228V378H168.359V371.644L165.741 378H164.257L161.625 371.644V378H159.665V368.228H161.891L164.999 375.494L168.107 368.228H170.319ZM171.753 374.094C171.753 373.31 171.907 372.615 172.215 372.008C172.532 371.401 172.957 370.935 173.489 370.608C174.03 370.281 174.632 370.118 175.295 370.118C175.874 370.118 176.378 370.235 176.807 370.468C177.246 370.701 177.596 370.995 177.857 371.35V370.244H179.831V378H177.857V376.866C177.605 377.23 177.255 377.533 176.807 377.776C176.368 378.009 175.86 378.126 175.281 378.126C174.628 378.126 174.03 377.958 173.489 377.622C172.957 377.286 172.532 376.815 172.215 376.208C171.907 375.592 171.753 374.887 171.753 374.094ZM177.857 374.122C177.857 373.646 177.764 373.24 177.577 372.904C177.39 372.559 177.138 372.297 176.821 372.12C176.504 371.933 176.163 371.84 175.799 371.84C175.435 371.84 175.099 371.929 174.791 372.106C174.483 372.283 174.231 372.545 174.035 372.89C173.848 373.226 173.755 373.627 173.755 374.094C173.755 374.561 173.848 374.971 174.035 375.326C174.231 375.671 174.483 375.937 174.791 376.124C175.108 376.311 175.444 376.404 175.799 376.404C176.163 376.404 176.504 376.315 176.821 376.138C177.138 375.951 177.39 375.69 177.577 375.354C177.764 375.009 177.857 374.598 177.857 374.122ZM183.705 371.448C183.957 371.037 184.284 370.715 184.685 370.482C185.096 370.249 185.563 370.132 186.085 370.132V372.19H185.567C184.951 372.19 184.485 372.335 184.167 372.624C183.859 372.913 183.705 373.417 183.705 374.136V378H181.745V370.244H183.705V371.448Z" fill="#999999"/>
<path d="M225.657 376.138H221.765L221.121 378H219.063L222.577 368.214H224.859L228.373 378H226.301L225.657 376.138ZM225.125 374.57L223.711 370.482L222.297 374.57H225.125ZM231.647 371.364C231.899 371.009 232.244 370.715 232.683 370.482C233.131 370.239 233.639 370.118 234.209 370.118C234.871 370.118 235.469 370.281 236.001 370.608C236.542 370.935 236.967 371.401 237.275 372.008C237.592 372.605 237.751 373.301 237.751 374.094C237.751 374.887 237.592 375.592 237.275 376.208C236.967 376.815 236.542 377.286 236.001 377.622C235.469 377.958 234.871 378.126 234.209 378.126C233.639 378.126 233.135 378.009 232.697 377.776C232.267 377.543 231.917 377.249 231.647 376.894V381.696H229.687V370.244H231.647V371.364ZM235.749 374.094C235.749 373.627 235.651 373.226 235.455 372.89C235.268 372.545 235.016 372.283 234.699 372.106C234.391 371.929 234.055 371.84 233.691 371.84C233.336 371.84 233 371.933 232.683 372.12C232.375 372.297 232.123 372.559 231.927 372.904C231.74 373.249 231.647 373.655 231.647 374.122C231.647 374.589 231.74 374.995 231.927 375.34C232.123 375.685 232.375 375.951 232.683 376.138C233 376.315 233.336 376.404 233.691 376.404C234.055 376.404 234.391 376.311 234.699 376.124C235.016 375.937 235.268 375.671 235.455 375.326C235.651 374.981 235.749 374.57 235.749 374.094ZM241.135 371.448C241.387 371.037 241.714 370.715 242.115 370.482C242.526 370.249 242.992 370.132 243.515 370.132V372.19H242.997C242.381 372.19 241.914 372.335 241.597 372.624C241.289 372.913 241.135 373.417 241.135 374.136V378H239.175V370.244H241.135V371.448Z" fill="#999999"/>
<path d="M288.319 368.228V378H286.359V371.644L283.741 378H282.257L279.625 371.644V378H277.665V368.228H279.891L282.999 375.494L286.107 368.228H288.319ZM289.753 374.094C289.753 373.31 289.907 372.615 290.215 372.008C290.532 371.401 290.957 370.935 291.489 370.608C292.03 370.281 292.632 370.118 293.295 370.118C293.874 370.118 294.378 370.235 294.807 370.468C295.246 370.701 295.596 370.995 295.857 371.35V370.244H297.831V378H295.857V376.866C295.605 377.23 295.255 377.533 294.807 377.776C294.368 378.009 293.86 378.126 293.281 378.126C292.628 378.126 292.03 377.958 291.489 377.622C290.957 377.286 290.532 376.815 290.215 376.208C289.907 375.592 289.753 374.887 289.753 374.094ZM295.857 374.122C295.857 373.646 295.764 373.24 295.577 372.904C295.39 372.559 295.138 372.297 294.821 372.12C294.504 371.933 294.163 371.84 293.799 371.84C293.435 371.84 293.099 371.929 292.791 372.106C292.483 372.283 292.231 372.545 292.035 372.89C291.848 373.226 291.755 373.627 291.755 374.094C291.755 374.561 291.848 374.971 292.035 375.326C292.231 375.671 292.483 375.937 292.791 376.124C293.108 376.311 293.444 376.404 293.799 376.404C294.163 376.404 294.504 376.315 294.821 376.138C295.138 375.951 295.39 375.69 295.577 375.354C295.764 375.009 295.857 374.598 295.857 374.122ZM307.165 370.244L302.363 381.668H300.277L301.957 377.804L298.849 370.244H301.047L303.049 375.662L305.079 370.244H307.165Z" fill="#999999"/>
<path d="M346.363 368.228V375.088C346.363 376.04 346.088 376.782 345.537 377.314C344.987 377.837 344.249 378.098 343.325 378.098C342.392 378.098 341.636 377.827 341.057 377.286C340.488 376.745 340.203 375.989 340.203 375.018H342.163C342.173 375.438 342.271 375.765 342.457 375.998C342.653 376.231 342.933 376.348 343.297 376.348C343.652 376.348 343.923 376.236 344.109 376.012C344.296 375.788 344.389 375.48 344.389 375.088V368.228H346.363ZM355.972 370.244V378H353.998V377.02C353.746 377.356 353.414 377.622 353.004 377.818C352.602 378.005 352.164 378.098 351.688 378.098C351.081 378.098 350.544 377.972 350.078 377.72C349.611 377.459 349.242 377.081 348.972 376.586C348.71 376.082 348.58 375.485 348.58 374.794V370.244H350.54V374.514C350.54 375.13 350.694 375.606 351.002 375.942C351.31 376.269 351.73 376.432 352.262 376.432C352.803 376.432 353.228 376.269 353.536 375.942C353.844 375.606 353.998 375.13 353.998 374.514V370.244H355.972ZM362.203 370.132C363.127 370.132 363.874 370.426 364.443 371.014C365.013 371.593 365.297 372.405 365.297 373.45V378H363.337V373.716C363.337 373.1 363.183 372.629 362.875 372.302C362.567 371.966 362.147 371.798 361.615 371.798C361.074 371.798 360.645 371.966 360.327 372.302C360.019 372.629 359.865 373.1 359.865 373.716V378H357.905V370.244H359.865V371.21C360.127 370.874 360.458 370.613 360.859 370.426C361.27 370.23 361.718 370.132 362.203 370.132Z" fill="#999999"/>
<path d="M405.363 368.228V375.088C405.363 376.04 405.088 376.782 404.537 377.314C403.987 377.837 403.249 378.098 402.325 378.098C401.392 378.098 400.636 377.827 400.057 377.286C399.488 376.745 399.203 375.989 399.203 375.018H401.163C401.173 375.438 401.271 375.765 401.457 375.998C401.653 376.231 401.933 376.348 402.297 376.348C402.652 376.348 402.923 376.236 403.109 376.012C403.296 375.788 403.389 375.48 403.389 375.088V368.228H405.363ZM414.972 370.244V378H412.998V377.02C412.746 377.356 412.414 377.622 412.004 377.818C411.602 378.005 411.164 378.098 410.688 378.098C410.081 378.098 409.544 377.972 409.078 377.72C408.611 377.459 408.242 377.081 407.972 376.586C407.71 376.082 407.58 375.485 407.58 374.794V370.244H409.54V374.514C409.54 375.13 409.694 375.606 410.002 375.942C410.31 376.269 410.73 376.432 411.262 376.432C411.803 376.432 412.228 376.269 412.536 375.942C412.844 375.606 412.998 375.13 412.998 374.514V370.244H414.972ZM418.865 367.64V378H416.905V367.64H418.865Z" fill="#999999"/>
<path d="M459.657 376.138H455.765L455.121 378H453.063L456.577 368.214H458.859L462.373 378H460.301L459.657 376.138ZM459.125 374.57L457.711 370.482L456.297 374.57H459.125ZM471.009 370.244V378H469.035V377.02C468.783 377.356 468.451 377.622 468.041 377.818C467.639 378.005 467.201 378.098 466.725 378.098C466.118 378.098 465.581 377.972 465.115 377.72C464.648 377.459 464.279 377.081 464.009 376.586C463.747 376.082 463.617 375.485 463.617 374.794V370.244H465.577V374.514C465.577 375.13 465.731 375.606 466.039 375.942C466.347 376.269 466.767 376.432 467.299 376.432C467.84 376.432 468.265 376.269 468.573 375.942C468.881 375.606 469.035 375.13 469.035 374.514V370.244H471.009ZM475.981 370.118C476.559 370.118 477.068 370.235 477.507 370.468C477.945 370.692 478.291 370.986 478.543 371.35V370.244H480.517V378.056C480.517 378.775 480.372 379.414 480.083 379.974C479.793 380.543 479.359 380.991 478.781 381.318C478.202 381.654 477.502 381.822 476.681 381.822C475.579 381.822 474.674 381.565 473.965 381.052C473.265 380.539 472.868 379.839 472.775 378.952H474.721C474.823 379.307 475.043 379.587 475.379 379.792C475.724 380.007 476.139 380.114 476.625 380.114C477.194 380.114 477.656 379.941 478.011 379.596C478.365 379.26 478.543 378.747 478.543 378.056V376.852C478.291 377.216 477.941 377.519 477.493 377.762C477.054 378.005 476.55 378.126 475.981 378.126C475.327 378.126 474.73 377.958 474.189 377.622C473.647 377.286 473.218 376.815 472.901 376.208C472.593 375.592 472.439 374.887 472.439 374.094C472.439 373.31 472.593 372.615 472.901 372.008C473.218 371.401 473.643 370.935 474.175 370.608C474.716 370.281 475.318 370.118 475.981 370.118ZM478.543 374.122C478.543 373.646 478.449 373.24 478.263 372.904C478.076 372.559 477.824 372.297 477.507 372.12C477.189 371.933 476.849 371.84 476.485 371.84C476.121 371.84 475.785 371.929 475.477 372.106C475.169 372.283 474.917 372.545 474.721 372.89C474.534 373.226 474.441 373.627 474.441 374.094C474.441 374.561 474.534 374.971 474.721 375.326C474.917 375.671 475.169 375.937 475.477 376.124C475.794 376.311 476.13 376.404 476.485 376.404C476.849 376.404 477.189 376.315 477.507 376.138C477.824 375.951 478.076 375.69 478.263 375.354C478.449 375.009 478.543 374.598 478.543 374.122Z" fill="#999999"/>
<path d="M518.039 378.098C517.358 378.098 516.742 377.981 516.191 377.748C515.65 377.515 515.221 377.179 514.903 376.74C514.586 376.301 514.423 375.783 514.413 375.186H516.513C516.541 375.587 516.681 375.905 516.933 376.138C517.195 376.371 517.549 376.488 517.997 376.488C518.455 376.488 518.814 376.381 519.075 376.166C519.337 375.942 519.467 375.653 519.467 375.298C519.467 375.009 519.379 374.771 519.201 374.584C519.024 374.397 518.8 374.253 518.529 374.15C518.268 374.038 517.904 373.917 517.437 373.786C516.803 373.599 516.285 373.417 515.883 373.24C515.491 373.053 515.151 372.778 514.861 372.414C514.581 372.041 514.441 371.546 514.441 370.93C514.441 370.351 514.586 369.847 514.875 369.418C515.165 368.989 515.571 368.662 516.093 368.438C516.616 368.205 517.213 368.088 517.885 368.088C518.893 368.088 519.71 368.335 520.335 368.83C520.97 369.315 521.32 369.997 521.385 370.874H519.229C519.211 370.538 519.066 370.263 518.795 370.048C518.534 369.824 518.184 369.712 517.745 369.712C517.363 369.712 517.055 369.81 516.821 370.006C516.597 370.202 516.485 370.487 516.485 370.86C516.485 371.121 516.569 371.341 516.737 371.518C516.915 371.686 517.129 371.826 517.381 371.938C517.643 372.041 518.007 372.162 518.473 372.302C519.108 372.489 519.626 372.675 520.027 372.862C520.429 373.049 520.774 373.329 521.063 373.702C521.353 374.075 521.497 374.565 521.497 375.172C521.497 375.695 521.362 376.18 521.091 376.628C520.821 377.076 520.424 377.435 519.901 377.706C519.379 377.967 518.758 378.098 518.039 378.098ZM530.406 373.954C530.406 374.234 530.388 374.486 530.35 374.71H524.68C524.727 375.27 524.923 375.709 525.268 376.026C525.614 376.343 526.038 376.502 526.542 376.502C527.27 376.502 527.788 376.189 528.096 375.564H530.21C529.986 376.311 529.557 376.927 528.922 377.412C528.288 377.888 527.508 378.126 526.584 378.126C525.838 378.126 525.166 377.963 524.568 377.636C523.98 377.3 523.518 376.829 523.182 376.222C522.856 375.615 522.692 374.915 522.692 374.122C522.692 373.319 522.856 372.615 523.182 372.008C523.509 371.401 523.966 370.935 524.554 370.608C525.142 370.281 525.819 370.118 526.584 370.118C527.322 370.118 527.98 370.277 528.558 370.594C529.146 370.911 529.599 371.364 529.916 371.952C530.243 372.531 530.406 373.198 530.406 373.954ZM528.376 373.394C528.367 372.89 528.185 372.489 527.83 372.19C527.476 371.882 527.042 371.728 526.528 371.728C526.043 371.728 525.632 371.877 525.296 372.176C524.97 372.465 524.769 372.871 524.694 373.394H528.376ZM533.797 371.364C534.049 371.009 534.394 370.715 534.833 370.482C535.281 370.239 535.79 370.118 536.359 370.118C537.022 370.118 537.619 370.281 538.151 370.608C538.692 370.935 539.117 371.401 539.425 372.008C539.742 372.605 539.901 373.301 539.901 374.094C539.901 374.887 539.742 375.592 539.425 376.208C539.117 376.815 538.692 377.286 538.151 377.622C537.619 377.958 537.022 378.126 536.359 378.126C535.79 378.126 535.286 378.009 534.847 377.776C534.418 377.543 534.068 377.249 533.797 376.894V381.696H531.837V370.244H533.797V371.364ZM537.899 374.094C537.899 373.627 537.801 373.226 537.605 372.89C537.418 372.545 537.166 372.283 536.849 372.106C536.541 371.929 536.205 371.84 535.841 371.84C535.486 371.84 535.15 371.933 534.833 372.12C534.525 372.297 534.273 372.559 534.077 372.904C533.89 373.249 533.797 373.655 533.797 374.122C533.797 374.589 533.89 374.995 534.077 375.34C534.273 375.685 534.525 375.951 534.833 376.138C535.15 376.315 535.486 376.404 535.841 376.404C536.205 376.404 536.541 376.311 536.849 376.124C537.166 375.937 537.418 375.671 537.605 375.326C537.801 374.981 537.899 374.57 537.899 374.094Z" fill="#999999"/>
<path d="M578.201 378.098C577.287 378.098 576.447 377.883 575.681 377.454C574.916 377.025 574.309 376.432 573.861 375.676C573.413 374.911 573.189 374.047 573.189 373.086C573.189 372.134 573.413 371.28 573.861 370.524C574.309 369.759 574.916 369.161 575.681 368.732C576.447 368.303 577.287 368.088 578.201 368.088C579.125 368.088 579.965 368.303 580.721 368.732C581.487 369.161 582.089 369.759 582.527 370.524C582.975 371.28 583.199 372.134 583.199 373.086C583.199 374.047 582.975 374.911 582.527 375.676C582.089 376.432 581.487 377.025 580.721 377.454C579.956 377.883 579.116 378.098 578.201 378.098ZM578.201 376.348C578.789 376.348 579.307 376.217 579.755 375.956C580.203 375.685 580.553 375.303 580.805 374.808C581.057 374.313 581.183 373.739 581.183 373.086C581.183 372.433 581.057 371.863 580.805 371.378C580.553 370.883 580.203 370.505 579.755 370.244C579.307 369.983 578.789 369.852 578.201 369.852C577.613 369.852 577.091 369.983 576.633 370.244C576.185 370.505 575.835 370.883 575.583 371.378C575.331 371.863 575.205 372.433 575.205 373.086C575.205 373.739 575.331 374.313 575.583 374.808C575.835 375.303 576.185 375.685 576.633 375.956C577.091 376.217 577.613 376.348 578.201 376.348ZM584.153 374.122C584.153 373.319 584.317 372.619 584.643 372.022C584.97 371.415 585.423 370.949 586.001 370.622C586.58 370.286 587.243 370.118 587.989 370.118C588.951 370.118 589.744 370.361 590.369 370.846C591.004 371.322 591.429 371.994 591.643 372.862H589.529C589.417 372.526 589.226 372.265 588.955 372.078C588.694 371.882 588.367 371.784 587.975 371.784C587.415 371.784 586.972 371.989 586.645 372.4C586.319 372.801 586.155 373.375 586.155 374.122C586.155 374.859 586.319 375.433 586.645 375.844C586.972 376.245 587.415 376.446 587.975 376.446C588.769 376.446 589.287 376.091 589.529 375.382H591.643C591.429 376.222 591.004 376.889 590.369 377.384C589.735 377.879 588.941 378.126 587.989 378.126C587.243 378.126 586.58 377.963 586.001 377.636C585.423 377.3 584.97 376.833 584.643 376.236C584.317 375.629 584.153 374.925 584.153 374.122ZM595.361 371.854V375.606C595.361 375.867 595.422 376.059 595.543 376.18C595.674 376.292 595.889 376.348 596.187 376.348H597.097V378H595.865C594.213 378 593.387 377.197 593.387 375.592V371.854H592.463V370.244H593.387V368.326H595.361V370.244H597.097V371.854H595.361Z" fill="#999999"/>
<path d="M639.023 378H637.063L632.625 371.294V378H630.665V368.214H632.625L637.063 374.934V368.214H639.023V378ZM644.404 378.126C643.657 378.126 642.985 377.963 642.388 377.636C641.791 377.3 641.319 376.829 640.974 376.222C640.638 375.615 640.47 374.915 640.47 374.122C640.47 373.329 640.643 372.629 640.988 372.022C641.343 371.415 641.823 370.949 642.43 370.622C643.037 370.286 643.713 370.118 644.46 370.118C645.207 370.118 645.883 370.286 646.49 370.622C647.097 370.949 647.573 371.415 647.918 372.022C648.273 372.629 648.45 373.329 648.45 374.122C648.45 374.915 648.268 375.615 647.904 376.222C647.549 376.829 647.064 377.3 646.448 377.636C645.841 377.963 645.16 378.126 644.404 378.126ZM644.404 376.418C644.759 376.418 645.09 376.334 645.398 376.166C645.715 375.989 645.967 375.727 646.154 375.382C646.341 375.037 646.434 374.617 646.434 374.122C646.434 373.385 646.238 372.82 645.846 372.428C645.463 372.027 644.992 371.826 644.432 371.826C643.872 371.826 643.401 372.027 643.018 372.428C642.645 372.82 642.458 373.385 642.458 374.122C642.458 374.859 642.64 375.429 643.004 375.83C643.377 376.222 643.844 376.418 644.404 376.418ZM653.122 376.194L655.082 370.244H657.168L654.298 378H651.918L649.062 370.244H651.162L653.122 376.194Z" fill="#999999"/>
<path d="M694.081 368.228C695.108 368.228 696.009 368.429 696.783 368.83C697.567 369.231 698.169 369.805 698.589 370.552C699.019 371.289 699.233 372.148 699.233 373.128C699.233 374.108 699.019 374.967 698.589 375.704C698.169 376.432 697.567 376.997 696.783 377.398C696.009 377.799 695.108 378 694.081 378H690.665V368.228H694.081ZM694.011 376.334C695.038 376.334 695.831 376.054 696.391 375.494C696.951 374.934 697.231 374.145 697.231 373.128C697.231 372.111 696.951 371.317 696.391 370.748C695.831 370.169 695.038 369.88 694.011 369.88H692.625V376.334H694.011ZM707.91 373.954C707.91 374.234 707.892 374.486 707.854 374.71H702.184C702.231 375.27 702.427 375.709 702.772 376.026C703.118 376.343 703.542 376.502 704.046 376.502C704.774 376.502 705.292 376.189 705.6 375.564H707.714C707.49 376.311 707.061 376.927 706.426 377.412C705.792 377.888 705.012 378.126 704.088 378.126C703.342 378.126 702.67 377.963 702.072 377.636C701.484 377.3 701.022 376.829 700.686 376.222C700.36 375.615 700.196 374.915 700.196 374.122C700.196 373.319 700.36 372.615 700.686 372.008C701.013 371.401 701.47 370.935 702.058 370.608C702.646 370.281 703.323 370.118 704.088 370.118C704.826 370.118 705.484 370.277 706.062 370.594C706.65 370.911 707.103 371.364 707.42 371.952C707.747 372.531 707.91 373.198 707.91 373.954ZM705.88 373.394C705.871 372.89 705.689 372.489 705.334 372.19C704.98 371.882 704.546 371.728 704.032 371.728C703.547 371.728 703.136 371.877 702.8 372.176C702.474 372.465 702.273 372.871 702.198 373.394H705.88ZM708.837 374.122C708.837 373.319 709 372.619 709.327 372.022C709.654 371.415 710.106 370.949 710.685 370.622C711.264 370.286 711.926 370.118 712.673 370.118C713.634 370.118 714.428 370.361 715.053 370.846C715.688 371.322 716.112 371.994 716.327 372.862H714.213C714.101 372.526 713.91 372.265 713.639 372.078C713.378 371.882 713.051 371.784 712.659 371.784C712.099 371.784 711.656 371.989 711.329 372.4C711.002 372.801 710.839 373.375 710.839 374.122C710.839 374.859 711.002 375.433 711.329 375.844C711.656 376.245 712.099 376.446 712.659 376.446C713.452 376.446 713.97 376.091 714.213 375.382H716.327C716.112 376.222 715.688 376.889 715.053 377.384C714.418 377.879 713.625 378.126 712.673 378.126C711.926 378.126 711.264 377.963 710.685 377.636C710.106 377.3 709.654 376.833 709.327 376.236C709 375.629 708.837 374.925 708.837 374.122Z" fill="#999999"/>
<g filter="url(#filter0_ddd_1307_4971)">
<rect x="198.254" y="60" width="113" height="42" rx="10" fill="#00A32F"/>
<path d="M226.209 83.186C226.209 83.6713 226.083 84.1287 225.831 84.558C225.588 84.978 225.224 85.328 224.739 85.608C224.263 85.8787 223.698 86.0373 223.045 86.084V87.218H222.149V86.07C221.215 85.986 220.464 85.706 219.895 85.23C219.325 84.7447 219.031 84.0913 219.013 83.27H221.113C221.169 83.942 221.514 84.348 222.149 84.488V81.814C221.477 81.646 220.935 81.478 220.525 81.31C220.114 81.142 219.759 80.8713 219.461 80.498C219.162 80.1247 219.013 79.616 219.013 78.972C219.013 78.16 219.302 77.4973 219.881 76.984C220.469 76.4707 221.225 76.1767 222.149 76.102V74.968H223.045V76.102C223.941 76.1767 224.655 76.4473 225.187 76.914C225.728 77.3807 226.031 78.0247 226.097 78.846H223.983C223.955 78.5753 223.857 78.342 223.689 78.146C223.53 77.9407 223.315 77.796 223.045 77.712V80.358C223.745 80.5353 224.295 80.708 224.697 80.876C225.107 81.0347 225.462 81.3007 225.761 81.674C226.059 82.038 226.209 82.542 226.209 83.186ZM221.057 78.874C221.057 79.182 221.15 79.434 221.337 79.63C221.523 79.8167 221.794 79.9707 222.149 80.092V77.67C221.813 77.7167 221.547 77.8427 221.351 78.048C221.155 78.2533 221.057 78.5287 221.057 78.874ZM223.045 84.516C223.399 84.4507 223.675 84.306 223.871 84.082C224.076 83.858 224.179 83.5873 224.179 83.27C224.179 82.962 224.081 82.7147 223.885 82.528C223.689 82.3413 223.409 82.1873 223.045 82.066V84.516ZM228.201 78.482C228.247 77.5487 228.574 76.83 229.181 76.326C229.797 75.8127 230.604 75.556 231.603 75.556C232.284 75.556 232.867 75.6773 233.353 75.92C233.838 76.1533 234.202 76.4753 234.445 76.886C234.697 77.2873 234.823 77.7447 234.823 78.258C234.823 78.846 234.669 79.3453 234.361 79.756C234.062 80.1573 233.703 80.428 233.283 80.568V80.624C233.824 80.792 234.244 81.0907 234.543 81.52C234.851 81.9493 235.005 82.5 235.005 83.172C235.005 83.732 234.874 84.2313 234.613 84.67C234.361 85.1087 233.983 85.454 233.479 85.706C232.984 85.9487 232.387 86.07 231.687 86.07C230.632 86.07 229.773 85.804 229.111 85.272C228.448 84.74 228.098 83.956 228.061 82.92H229.965C229.983 83.3773 230.137 83.746 230.427 84.026C230.725 84.2967 231.131 84.432 231.645 84.432C232.121 84.432 232.485 84.3013 232.737 84.04C232.998 83.7693 233.129 83.424 233.129 83.004C233.129 82.444 232.951 82.0427 232.597 81.8C232.242 81.5573 231.691 81.436 230.945 81.436H230.539V79.826H230.945C232.27 79.826 232.933 79.3827 232.933 78.496C232.933 78.0947 232.811 77.782 232.569 77.558C232.335 77.334 231.995 77.222 231.547 77.222C231.108 77.222 230.767 77.3433 230.525 77.586C230.291 77.8193 230.156 78.118 230.119 78.482H228.201ZM236.582 78.482C236.628 77.5487 236.955 76.83 237.562 76.326C238.178 75.8127 238.985 75.556 239.984 75.556C240.665 75.556 241.248 75.6773 241.734 75.92C242.219 76.1533 242.583 76.4753 242.826 76.886C243.078 77.2873 243.204 77.7447 243.204 78.258C243.204 78.846 243.05 79.3453 242.742 79.756C242.443 80.1573 242.084 80.428 241.664 80.568V80.624C242.205 80.792 242.625 81.0907 242.924 81.52C243.232 81.9493 243.386 82.5 243.386 83.172C243.386 83.732 243.255 84.2313 242.994 84.67C242.742 85.1087 242.364 85.454 241.86 85.706C241.365 85.9487 240.768 86.07 240.068 86.07C239.013 86.07 238.154 85.804 237.492 85.272C236.829 84.74 236.479 83.956 236.442 82.92H238.346C238.364 83.3773 238.518 83.746 238.808 84.026C239.106 84.2967 239.512 84.432 240.026 84.432C240.502 84.432 240.866 84.3013 241.118 84.04C241.379 83.7693 241.51 83.424 241.51 83.004C241.51 82.444 241.332 82.0427 240.978 81.8C240.623 81.5573 240.072 81.436 239.326 81.436H238.92V79.826H239.326C240.651 79.826 241.314 79.3827 241.314 78.496C241.314 78.0947 241.192 77.782 240.95 77.558C240.716 77.334 240.376 77.222 239.928 77.222C239.489 77.222 239.148 77.3433 238.906 77.586C238.672 77.8193 238.537 78.118 238.5 78.482H236.582ZM246.026 86.098C245.672 86.098 245.378 85.9907 245.144 85.776C244.92 85.552 244.808 85.2767 244.808 84.95C244.808 84.6233 244.92 84.3527 245.144 84.138C245.378 83.914 245.672 83.802 246.026 83.802C246.372 83.802 246.656 83.914 246.88 84.138C247.104 84.3527 247.216 84.6233 247.216 84.95C247.216 85.2767 247.104 85.552 246.88 85.776C246.656 85.9907 246.372 86.098 246.026 86.098ZM248.333 77.6V75.794H251.707V86H249.691V77.6H248.333ZM253.643 80.764C253.643 79.1493 253.933 77.8847 254.511 76.97C255.099 76.0553 256.07 75.598 257.423 75.598C258.777 75.598 259.743 76.0553 260.321 76.97C260.909 77.8847 261.203 79.1493 261.203 80.764C261.203 82.388 260.909 83.662 260.321 84.586C259.743 85.51 258.777 85.972 257.423 85.972C256.07 85.972 255.099 85.51 254.511 84.586C253.933 83.662 253.643 82.388 253.643 80.764ZM259.271 80.764C259.271 80.0733 259.225 79.4947 259.131 79.028C259.047 78.552 258.87 78.1647 258.599 77.866C258.338 77.5673 257.946 77.418 257.423 77.418C256.901 77.418 256.504 77.5673 256.233 77.866C255.972 78.1647 255.795 78.552 255.701 79.028C255.617 79.4947 255.575 80.0733 255.575 80.764C255.575 81.4733 255.617 82.0707 255.701 82.556C255.785 83.032 255.963 83.4193 256.233 83.718C256.504 84.0073 256.901 84.152 257.423 84.152C257.946 84.152 258.343 84.0073 258.613 83.718C258.884 83.4193 259.061 83.032 259.145 82.556C259.229 82.0707 259.271 81.4733 259.271 80.764ZM269.554 77.488H265.018V79.882C265.214 79.6393 265.494 79.4433 265.858 79.294C266.222 79.1353 266.609 79.056 267.02 79.056C267.767 79.056 268.378 79.2193 268.854 79.546C269.33 79.8727 269.675 80.2927 269.89 80.806C270.105 81.31 270.212 81.8513 270.212 82.43C270.212 83.5033 269.904 84.3667 269.288 85.02C268.681 85.6733 267.813 86 266.684 86C265.62 86 264.771 85.734 264.136 85.202C263.501 84.67 263.142 83.9747 263.058 83.116H264.962C265.046 83.4893 265.233 83.788 265.522 84.012C265.821 84.236 266.199 84.348 266.656 84.348C267.207 84.348 267.622 84.1753 267.902 83.83C268.182 83.4847 268.322 83.0273 268.322 82.458C268.322 81.8793 268.177 81.4407 267.888 81.142C267.608 80.834 267.193 80.68 266.642 80.68C266.25 80.68 265.923 80.778 265.662 80.974C265.401 81.17 265.214 81.4313 265.102 81.758H263.226V75.766H269.554V77.488ZM274.07 83.942L272.432 87.876H271.172L272.082 83.942H274.07ZM275.259 80.764C275.259 79.1493 275.548 77.8847 276.127 76.97C276.715 76.0553 277.685 75.598 279.039 75.598C280.392 75.598 281.358 76.0553 281.937 76.97C282.525 77.8847 282.819 79.1493 282.819 80.764C282.819 82.388 282.525 83.662 281.937 84.586C281.358 85.51 280.392 85.972 279.039 85.972C277.685 85.972 276.715 85.51 276.127 84.586C275.548 83.662 275.259 82.388 275.259 80.764ZM280.887 80.764C280.887 80.0733 280.84 79.4947 280.747 79.028C280.663 78.552 280.485 78.1647 280.215 77.866C279.953 77.5673 279.561 77.418 279.039 77.418C278.516 77.418 278.119 77.5673 277.849 77.866C277.587 78.1647 277.41 78.552 277.317 79.028C277.233 79.4947 277.191 80.0733 277.191 80.764C277.191 81.4733 277.233 82.0707 277.317 82.556C277.401 83.032 277.578 83.4193 277.849 83.718C278.119 84.0073 278.516 84.152 279.039 84.152C279.561 84.152 279.958 84.0073 280.229 83.718C280.499 83.4193 280.677 83.032 280.761 82.556C280.845 82.0707 280.887 81.4733 280.887 80.764ZM290.805 77.278L287.081 86H285.093L288.845 77.502H284.057V75.822H290.805V77.278Z" fill="white"/>
<path d="M257.352 109.865C256.197 111.865 253.311 111.865 252.156 109.865L247.614 101.999H261.894L257.352 109.865Z" fill="#00A32F"/>
</g>
<path opacity="0.6" d="M674.565 214.632L736.685 316.289V342H50.4781V210.797L112.598 165.808L175.44 298.323L237.56 125L299.679 256.357L361.799 172.392L424.641 182.179L487.483 260.993L548.881 150.756L611.723 236.267L674.565 214.632Z" fill="url(#paint0_linear_1307_4971)"/>
<path d="M736.685 316L674.565 214.497L611.723 236.099L548.881 150.717L487.483 260.788L424.641 182.093L361.799 172.32L299.679 256.159L237.56 125L175.44 298.061L112.598 165.747L50.4781 210.668" stroke="#C686F8" stroke-width="2" stroke-linejoin="round"/>
<path d="M50.478 306L112.598 233.845L175.44 265.655L238.282 166.367L299.679 281.268L362.521 277.146L425.363 126L487.483 233.845L549.603 160.699L611.723 288.03L674.565 155.483L736.684 200.483" stroke="#8571F4" stroke-width="2" stroke-linejoin="round"/>
<path d="M112.598 233.792L50.478 305.912V332H736.685V200.446L674.565 155.468L611.723 287.951L549.603 160.682L487.483 233.792L425.363 126L362.521 277.072L299.679 281.192L238.282 166.347L175.44 265.587L112.598 233.792Z" fill="url(#paint1_linear_1307_4971)"/>
<ellipse cx="237.758" cy="125" rx="4.38938" ry="6" fill="white" stroke="#C686F8" stroke-width="2"/>
<defs>
<filter id="filter0_ddd_1307_4971" x="184.254" y="51" width="141" height="82.3652" filterUnits="userSpaceOnUse" color-interpolation-filters="sRGB">
<feFlood flood-opacity="0" result="BackgroundImageFix"/>
<feColorMatrix in="SourceAlpha" type="matrix" values="0 0 0 0 0 0 0 0 0 0 0 0 0 0 0 0 0 0 127 0" result="hardAlpha"/>
<feOffset dy="5"/>
<feGaussianBlur stdDeviation="7"/>
<feColorMatrix type="matrix" values="0 0 0 0 0.0323264 0 0 0 0 0.0598209 0 0 0 0 0.204167 0 0 0 0.04 0"/>
<feBlend mode="normal" in2="BackgroundImageFix" result="effect1_dropShadow_1307_4971"/>
<feColorMatrix in="SourceAlpha" type="matrix" values="0 0 0 0 0 0 0 0 0 0 0 0 0 0 0 0 0 0 127 0" result="hardAlpha"/>
<feOffset dy="1"/>
<feGaussianBlur stdDeviation="0.5"/>
<feComposite in2="hardAlpha" operator="out"/>
<feColorMatrix type="matrix" values="0 0 0 0 0.090196 0 0 0 0 0.0588235 0 0 0 0 0.286275 0 0 0 0.04 0"/>
<feBlend mode="normal" in2="effect1_dropShadow_1307_4971" result="effect2_dropShadow_1307_4971"/>
<feColorMatrix in="SourceAlpha" type="matrix" values="0 0 0 0 0 0 0 0 0 0 0 0 0 0 0 0 0 0 127 0" result="hardAlpha"/>
<feOffset/>
<feGaussianBlur stdDeviation="0.5"/>
<feComposite in2="hardAlpha" operator="out"/>
<feColorMatrix type="matrix" values="0 0 0 0 0.090196 0 0 0 0 0.0588235 0 0 0 0 0.286275 0 0 0 0.03 0"/>
<feBlend mode="normal" in2="effect2_dropShadow_1307_4971" result="effect3_dropShadow_1307_4971"/>
<feBlend mode="normal" in="SourceGraphic" in2="effect3_dropShadow_1307_4971" result="shape"/>
</filter>
<linearGradient id="paint0_linear_1307_4971" x1="393.581" y1="125" x2="393.581" y2="342" gradientUnits="userSpaceOnUse">
<stop stop-color="#C686F8" stop-opacity="0.4"/>
<stop offset="1" stop-color="#C686F8" stop-opacity="0"/>
</linearGradient>
<linearGradient id="paint1_linear_1307_4971" x1="393.581" y1="126" x2="393.581" y2="332" gradientUnits="userSpaceOnUse">
<stop stop-color="#8571F4" stop-opacity="0.4"/>
<stop offset="1" stop-color="#8571F4" stop-opacity="0"/>
</linearGradient>
</defs>
</svg>
