<svg width="170" height="175" viewBox="0 0 170 175" fill="none" xmlns="http://www.w3.org/2000/svg">
<path opacity="0.83" d="M147.224 44.6328C133.573 30.7176 114.618 22.0219 93.5921 21.8212C72.5661 21.6204 53.442 29.9674 39.5373 43.6079C25.6327 57.2484 16.9265 76.214 16.7257 97.24C16.525 118.266 24.872 137.39 38.5124 151.295C52.1529 165.199 71.1186 173.906 92.1446 174.106C113.171 174.307 132.295 165.96 146.199 152.32C160.115 138.669 168.81 119.714 169.011 98.6875C169.212 77.6616 160.865 58.548 147.224 44.6328Z" fill="url(#paint0_radial_31_7900)" fill-opacity="0.5"/>
<path d="M2.00375 86C1.79244 107.998 10.5198 128.01 24.8048 142.569C39.0898 157.129 58.9218 166.237 80.9199 166.448L81.6806 86.7713L2.00375 86Z" fill="#FFBB38"/>
<path d="M39.252 87.9737C39.1252 101.329 44.4187 113.469 53.0932 122.302C61.7572 131.135 73.7917 136.661 87.1469 136.788L87.6118 88.4386L39.252 87.9737Z" fill="#FFB11F"/>
<path d="M26.2455 25.9101C10.2383 41.6109 0.232448 63.4188 0 87.6039L87.6013 88.4386L88.436 0.837378C64.2402 0.60493 42.2527 10.2093 26.2455 25.9101Z" fill="#4C78FF"/>
<path d="M53.7382 53.9202C44.9052 62.5842 39.3792 74.6186 39.2524 87.9738L87.6017 88.4387L88.0665 40.0895C74.7113 39.9627 62.5712 45.2562 53.7382 53.9202Z" fill="#3464F3"/>
<path d="M138.97 27.4118C123.914 11.3034 103.008 1.23209 79.8041 1.00024L79 89.1563L162.996 90.0002C163.226 65.6474 154.027 43.511 138.97 27.4118Z" fill="#16DBCC"/>
<path d="M122.11 54.575C113.446 45.742 101.411 40.2161 88.056 40.0893L87.5911 88.4385L135.94 88.9034C136.078 75.5482 130.784 63.4081 122.11 54.575Z" fill="#1EC6B8"/>
<path d="M81.7693 87L81 166.996C103.155 167.209 123.299 158.442 137.963 144.106C152.627 129.771 161.799 109.854 162 87.7669L81.7693 87Z" fill="#FF82AC"/>
<path opacity="0.08" d="M87.5274 96.2256L87.6014 88.4386L7.92452 87.6779C7.90339 90.3087 8.00905 92.908 8.23093 95.4649L87.5274 96.2256Z" fill="url(#paint1_linear_31_7900)"/>
<path d="M87.6014 88.4385L87.1365 136.788C100.492 136.915 112.632 131.621 121.465 122.957C130.298 114.293 135.824 102.259 135.951 88.9034L87.6014 88.4385Z" fill="#FF6195"/>
<path opacity="0.83" d="M119.658 71.6391C113.445 65.3102 104.824 61.348 95.2511 61.2529C85.6784 61.1578 76.9827 64.9615 70.6538 71.1637C64.3249 77.3764 60.3627 85.9981 60.2676 95.5707C60.1725 105.143 63.9762 113.839 70.1784 120.168C76.3911 126.497 85.0128 130.459 94.5854 130.554C104.158 130.649 112.854 126.846 119.183 120.643C125.512 114.431 129.474 105.809 129.569 96.2363C129.664 86.6637 125.871 77.968 119.658 71.6391Z" fill="url(#paint2_radial_31_7900)" fill-opacity="0.5"/>
<path d="M112.336 64.1689C106.123 57.84 97.5014 53.8778 87.9288 53.7827C78.3561 53.6877 69.6605 57.4913 63.3315 63.6935C57.0026 69.9062 53.0404 78.5279 52.9453 88.1005C52.8503 97.6732 56.6539 106.369 62.8561 112.698C69.0688 119.027 77.6905 122.989 87.2631 123.084C96.8358 123.179 105.531 119.375 111.86 113.173C118.189 106.961 122.151 98.3388 122.247 88.7662C122.342 79.1936 118.549 70.4979 112.336 64.1689Z" fill="white"/>
<defs>
<radialGradient id="paint0_radial_31_7900" cx="0" cy="0" r="1" gradientUnits="userSpaceOnUse" gradientTransform="translate(92.8643 97.9644) rotate(0.544294) scale(76.1507)">
<stop/>
<stop offset="1" stop-opacity="0"/>
</radialGradient>
<linearGradient id="paint1_linear_31_7900" x1="47.6705" y1="97.4008" x2="47.7575" y2="88.2383" gradientUnits="userSpaceOnUse">
<stop stop-color="white"/>
<stop offset="1"/>
</linearGradient>
<radialGradient id="paint2_radial_31_7900" cx="0" cy="0" r="1" gradientUnits="userSpaceOnUse" gradientTransform="translate(94.9259 95.9029) rotate(0.544294) scale(34.6508 34.6508)">
<stop/>
<stop offset="1" stop-opacity="0"/>
</radialGradient>
</defs>
</svg>
