<svg width="195" height="36" viewBox="0 0 195 36" fill="none" xmlns="http://www.w3.org/2000/svg">
<path fill-rule="evenodd" clip-rule="evenodd" d="M27.266 10.0513L25.416 14.1832L21.277 14.8483C20.9241 14.9375 20.6445 15.2064 20.5419 15.5555C20.4392 15.9048 20.5286 16.2822 20.777 16.5482L23.771 19.7632L23.063 24.3052C22.9767 24.656 23.1019 25.025 23.384 25.2506C23.6661 25.4763 24.0537 25.5175 24.377 25.3562L28.0769 23.2133L31.7769 25.3562C32.1001 25.5165 32.4871 25.4749 32.7689 25.2495C33.0507 25.024 33.1763 24.6558 33.0908 24.3052L32.3828 19.7632L35.3768 16.5482C35.626 16.2823 35.7157 15.9047 35.6129 15.5553C35.5101 15.2058 35.2302 14.9369 34.8768 14.8483L30.7378 14.1832L28.8878 10.0513C28.7562 9.71851 28.4347 9.5 28.0769 9.5C27.7191 9.5 27.3976 9.71851 27.266 10.0513Z" fill="#FFA900"/>
<path fill-rule="evenodd" clip-rule="evenodd" d="M52.4208 10.054L50.5708 14.1859L46.4318 14.851C46.0789 14.9402 45.7993 15.2091 45.6967 15.5582C45.594 15.9075 45.6833 16.2849 45.9318 16.5509L48.9258 19.7659L48.2178 24.3079C48.1315 24.6587 48.2567 25.0277 48.5388 25.2533C48.8209 25.479 49.2085 25.5201 49.5317 25.3589L53.2317 23.2159L56.9316 25.3589C57.255 25.5198 57.6423 25.4785 57.9244 25.2529C58.2067 25.0275 58.3323 24.6587 58.2466 24.3079L57.5386 19.7659L60.5326 16.5509C60.7817 16.285 60.8715 15.9073 60.7687 15.558C60.6659 15.2085 60.386 14.9396 60.0326 14.851L55.8947 14.1859L54.0447 10.054C53.9138 9.71985 53.5917 9.5 53.2328 9.5C52.8739 9.5 52.5518 9.71985 52.4209 10.054H52.4208Z" fill="#FFA900"/>
<path fill-rule="evenodd" clip-rule="evenodd" d="M77.5765 10.054L75.7266 14.1859L71.5875 14.851C71.2346 14.9402 70.9551 15.2091 70.8524 15.5582C70.7498 15.9075 70.8391 16.2849 71.0875 16.5509L74.0815 19.7659L73.3735 24.3079C73.2872 24.6587 73.4125 25.0277 73.6946 25.2533C73.9767 25.479 74.3643 25.5201 74.6875 25.3589L78.3875 23.2159L82.0874 25.3589C82.4108 25.5198 82.7981 25.4785 83.0802 25.2529C83.3624 25.0275 83.488 24.6587 83.4023 24.3079L82.6943 19.7659L85.6884 16.5509C85.9368 16.2849 86.0261 15.9075 85.9235 15.5582C85.8208 15.2091 85.5413 14.9402 85.1884 14.851L81.0504 14.1859L79.2004 10.054C79.0695 9.71985 78.7473 9.5 78.3884 9.5C78.0295 9.5 77.7074 9.71985 77.5765 10.054Z" fill="#FFA900"/>
<path fill-rule="evenodd" clip-rule="evenodd" d="M102.731 10.0527L100.881 14.1847L96.7423 14.8497C96.3894 14.939 96.1099 15.2079 96.0072 15.557C95.9045 15.9062 95.9939 16.2837 96.2423 16.5497L99.2363 19.7646L98.5283 24.3066C98.442 24.6575 98.5673 25.0265 98.8494 25.2521C99.1315 25.4778 99.519 25.5189 99.8423 25.3577L103.542 23.2147L107.242 25.3577C107.565 25.5179 107.952 25.4763 108.234 25.251C108.516 25.0255 108.642 24.6572 108.556 24.3066L107.848 19.7646L110.842 16.5497C111.091 16.2837 111.18 15.9062 111.077 15.557C110.975 15.2079 110.695 14.939 110.342 14.8497L106.204 14.1847L104.354 10.0527C104.223 9.71924 103.901 9.5 103.543 9.5C103.184 9.5 102.862 9.71924 102.731 10.0527H102.731Z" fill="#FFA900"/>
<path fill-rule="evenodd" clip-rule="evenodd" d="M127.885 10.0527L126.035 14.1847L121.896 14.8497C121.543 14.939 121.264 15.2079 121.161 15.557C121.058 15.9062 121.148 16.2837 121.396 16.5497L124.39 19.7646L123.682 24.3066C123.596 24.6575 123.721 25.0265 124.003 25.2521C124.285 25.4778 124.673 25.5189 124.996 25.3577L128.696 23.2147L132.396 25.3577C132.719 25.5179 133.106 25.4763 133.388 25.251C133.67 25.0255 133.795 24.6572 133.71 24.3066L133.002 19.7646L135.996 16.5497C136.244 16.2837 136.334 15.9062 136.231 15.557C136.128 15.2079 135.849 14.939 135.496 14.8497L131.358 14.1847L129.508 10.0527C129.377 9.71924 129.055 9.5 128.697 9.5C128.338 9.5 128.016 9.71924 127.885 10.0527H127.885Z" fill="#FFA900"/>
<path d="M153.332 14.596H149.12V16.819C149.302 16.5937 149.562 16.4117 149.9 16.273C150.238 16.1257 150.598 16.052 150.979 16.052C151.672 16.052 152.24 16.2037 152.682 16.507C153.124 16.8103 153.445 17.2003 153.644 17.677C153.843 18.145 153.943 18.6477 153.943 19.185C153.943 20.1817 153.657 20.9833 153.085 21.59C152.522 22.1967 151.716 22.5 150.667 22.5C149.679 22.5 148.89 22.253 148.301 21.759C147.712 21.265 147.378 20.6193 147.3 19.822H149.068C149.146 20.1687 149.319 20.446 149.588 20.654C149.865 20.862 150.216 20.966 150.641 20.966C151.152 20.966 151.538 20.8057 151.798 20.485C152.058 20.1643 152.188 19.7397 152.188 19.211C152.188 18.6737 152.054 18.2663 151.785 17.989C151.525 17.703 151.139 17.56 150.628 17.56C150.264 17.56 149.961 17.651 149.718 17.833C149.475 18.015 149.302 18.2577 149.198 18.561H147.456V12.997H153.332V14.596ZM156.342 22.591C156.013 22.591 155.74 22.4913 155.523 22.292C155.315 22.084 155.211 21.8283 155.211 21.525C155.211 21.2217 155.315 20.9703 155.523 20.771C155.74 20.563 156.013 20.459 156.342 20.459C156.663 20.459 156.927 20.563 157.135 20.771C157.343 20.9703 157.447 21.2217 157.447 21.525C157.447 21.8283 157.343 22.084 157.135 22.292C156.927 22.4913 156.663 22.591 156.342 22.591ZM158.705 17.638C158.705 16.1387 158.974 14.9643 159.511 14.115C160.057 13.2657 160.958 12.841 162.215 12.841C163.472 12.841 164.369 13.2657 164.906 14.115C165.452 14.9643 165.725 16.1387 165.725 17.638C165.725 19.146 165.452 20.329 164.906 21.187C164.369 22.045 163.472 22.474 162.215 22.474C160.958 22.474 160.057 22.045 159.511 21.187C158.974 20.329 158.705 19.146 158.705 17.638ZM163.931 17.638C163.931 16.9967 163.888 16.4593 163.801 16.026C163.723 15.584 163.558 15.2243 163.307 14.947C163.064 14.6697 162.7 14.531 162.215 14.531C161.73 14.531 161.361 14.6697 161.11 14.947C160.867 15.2243 160.703 15.584 160.616 16.026C160.538 16.4593 160.499 16.9967 160.499 17.638C160.499 18.2967 160.538 18.8513 160.616 19.302C160.694 19.744 160.859 20.1037 161.11 20.381C161.361 20.6497 161.73 20.784 162.215 20.784C162.7 20.784 163.069 20.6497 163.32 20.381C163.571 20.1037 163.736 19.744 163.814 19.302C163.892 18.8513 163.931 18.2967 163.931 17.638Z" fill="#D9E1E7"/>
</svg>
