<svg width="340" height="149" viewBox="0 0 340 149" fill="none" xmlns="http://www.w3.org/2000/svg">
<path d="M340 147.5H0V148.5H340V147.5Z" fill="#384455"/>
<mask id="mask0_1307_4935" style="mask-type:alpha" maskUnits="userSpaceOnUse" x="25" y="0" width="290" height="148">
<rect x="25.9243" y="0.248047" width="288.151" height="147.505" fill="#D9D9D9"/>
</mask>
<g mask="url(#mask0_1307_4935)">
<mask id="path-4-inside-1_1307_4935" fill="white">
<path d="M25.9248 147.67C25.9248 125.404 31.1431 103.447 41.1612 83.561C51.1792 63.6751 65.7182 46.4138 83.6119 33.1615L120.323 82.7296C110.175 90.2453 101.929 100.035 96.2478 111.312C90.5663 122.59 87.6069 135.042 87.6069 147.67L25.9248 147.67Z"/>
</mask>
<path d="M25.9248 147.67C25.9248 125.404 31.1431 103.447 41.1612 83.561C51.1792 63.6751 65.7182 46.4138 83.6119 33.1615L120.323 82.7296C110.175 90.2453 101.929 100.035 96.2478 111.312C90.5663 122.59 87.6069 135.042 87.6069 147.67L25.9248 147.67Z" stroke="#CD95F9" stroke-width="100" mask="url(#path-4-inside-1_1307_4935)"/>
<mask id="path-5-inside-2_1307_4935" fill="white">
<path d="M85.2046 31.7072C107.588 15.2891 134.279 5.76637 161.999 4.30856C189.72 2.85078 217.263 9.52151 241.245 23.5013L210.181 76.7901C196.58 68.8619 180.96 65.0788 165.239 65.9055C149.518 66.7322 134.381 72.1328 121.687 81.4439L85.2046 31.7072Z"/>
</mask>
<path d="M85.2046 31.7072C107.588 15.2891 134.279 5.76637 161.999 4.30856C189.72 2.85078 217.263 9.52151 241.245 23.5013L210.181 76.7901C196.58 68.8619 180.96 65.0788 165.239 65.9055C149.518 66.7322 134.381 72.1328 121.687 81.4439L85.2046 31.7072Z" stroke="#86F3A6" stroke-width="100" mask="url(#path-5-inside-2_1307_4935)"/>
<mask id="path-6-inside-3_1307_4935" fill="white">
<path d="M242.705 24.6171C259.637 34.4774 274.354 47.7237 285.935 63.5284L236.182 99.9871C229.614 91.0239 221.267 83.5116 211.665 77.9196L242.705 24.6171Z"/>
</mask>
<path d="M242.705 24.6171C259.637 34.4774 274.354 47.7237 285.935 63.5284L236.182 99.9871C229.614 91.0239 221.267 83.5116 211.665 77.9196L242.705 24.6171Z" stroke="#C6F7FE" stroke-width="100" mask="url(#path-6-inside-3_1307_4935)"/>
<path d="M286.881 65.2154C303.684 88.3534 313.137 118.012 314.01 148.594L252.356 148.477C251.861 132.268 246.501 114.582 236.971 101.46L286.881 65.2154Z" fill="#FBCFEE"/>
<path d="M135.372 127.608V123.744L144.22 111.088H149.568V123.464H151.864V127.608H149.568V131.248H144.78V127.608H135.372ZM145.116 116.352L140.412 123.464H145.116V116.352ZM154.321 127.608V123.744L163.169 111.088H168.517V123.464H170.813V127.608H168.517V131.248H163.729V127.608H154.321ZM164.065 116.352L159.361 123.464H164.065V116.352ZM178.786 126.824L175.678 134.86H172.626L174.25 126.824H178.786ZM180.693 115.26V110.808H188.449V131.248H183.465V115.26H180.693ZM191.332 115.96C191.332 114.448 191.762 113.281 192.62 112.46C193.498 111.639 194.627 111.228 196.008 111.228C197.39 111.228 198.51 111.639 199.368 112.46C200.227 113.281 200.656 114.448 200.656 115.96C200.656 117.472 200.227 118.639 199.368 119.46C198.51 120.281 197.39 120.692 196.008 120.692C194.627 120.692 193.498 120.281 192.62 119.46C191.762 118.639 191.332 117.472 191.332 115.96ZM210.344 111.536L199.564 131.248H194.944L205.724 111.536H210.344ZM195.98 114.028C195.084 114.028 194.636 114.672 194.636 115.96C194.636 117.229 195.084 117.864 195.98 117.864C196.41 117.864 196.746 117.705 196.988 117.388C197.231 117.071 197.352 116.595 197.352 115.96C197.352 114.672 196.895 114.028 195.98 114.028ZM204.66 126.824C204.66 125.312 205.09 124.145 205.948 123.324C206.807 122.503 207.927 122.092 209.308 122.092C210.69 122.092 211.81 122.503 212.668 123.324C213.527 124.145 213.956 125.312 213.956 126.824C213.956 128.336 213.527 129.503 212.668 130.324C211.81 131.145 210.69 131.556 209.308 131.556C207.927 131.556 206.807 131.145 205.948 130.324C205.09 129.503 204.66 128.336 204.66 126.824ZM209.28 124.892C208.851 124.892 208.515 125.051 208.272 125.368C208.048 125.685 207.936 126.171 207.936 126.824C207.936 128.093 208.384 128.728 209.28 128.728C209.71 128.728 210.046 128.569 210.288 128.252C210.531 127.935 210.652 127.459 210.652 126.824C210.652 126.189 210.531 125.713 210.288 125.396C210.046 125.06 209.71 124.892 209.28 124.892Z" fill="black"/>
</g>
</svg>
