<svg fill="#000000" xmlns="http://www.w3.org/2000/svg"  viewBox="0 0 30 30" width="30px" height="30px"><path d="M 15 3 C 14.12 3 13.537109 3.7832031 13.537109 3.7832031 C 10.350655 3.7832031 10.005972 7.1703096 9.8027344 10 L 4 10 C 2.9069372 10 2 10.906937 2 12 L 2 24 C 2 25.093063 2.9069372 26 4 26 L 26 26 C 27.093063 26 28 25.093063 28 24 L 28 12 C 28 10.906937 27.093063 10 26 10 L 19.933594 10 C 19.577015 6.8891277 19.007887 3 15 3 z M 4 12 L 25 12 L 25 17 C 25.552 17 26 17.448 26 18 C 26 18.552 25.552 19 25 19 L 25 24 L 16.847656 24 C 16.492306 23.797268 16.211021 23.553435 16.083984 23.208984 L 16.083984 22.667969 C 18.140984 22.667969 19.207031 21.667969 19.207031 21.667969 C 18.055031 20.722969 19.452 14 15 14 C 14.365 14 13.943359 14.564453 13.943359 14.564453 C 10.302359 14.564453 11.781891 20.756484 10.712891 21.646484 C 10.712891 21.646484 11.870969 22.667969 13.917969 22.667969 L 13.917969 23.208984 C 13.790569 23.553435 13.507674 23.797268 13.152344 24 L 4 24 L 4 12 z"/></svg>