<?xml version="1.0" encoding="utf-8"?>
<!-- Generator: Adobe Illustrator 27.3.1, SVG Export Plug-In . SVG Version: 6.00 Build 0)  -->
<svg version="1.1" id="Glyph" xmlns="http://www.w3.org/2000/svg" xmlns:xlink="http://www.w3.org/1999/xlink" x="0px" y="0px"
	 viewBox="0 0 64 64" enable-background="new 0 0 64 64" xml:space="preserve">
<g>
	<path d="M8,23h3c0.55225,0,1-0.44775,1-1V12h10c0.55225,0,1-0.44775,1-1V8c0-0.55225-0.44775-1-1-1H8C7.44775,7,7,7.44775,7,8v14
		C7,22.55225,7.44775,23,8,23z"/>
	<path d="M56,7H42c-0.55225,0-1,0.44775-1,1v3c0,0.55225,0.44775,1,1,1h10v10c0,0.55225,0.44775,1,1,1h3c0.55225,0,1-0.44775,1-1V8
		C57,7.44775,56.55225,7,56,7z"/>
	<path d="M22,52H12V42c0-0.55273-0.44775-1-1-1H8c-0.55225,0-1,0.44727-1,1v14c0,0.55273,0.44775,1,1,1h14c0.55225,0,1-0.44727,1-1
		v-3C23,52.44727,22.55225,52,22,52z"/>
	<path d="M56,41h-3c-0.55225,0-1,0.44727-1,1v10H42c-0.55225,0-1,0.44727-1,1v3c0,0.55273,0.44775,1,1,1h14c0.55225,0,1-0.44727,1-1
		V42C57,41.44727,56.55225,41,56,41z"/>
	<path d="M45.7998,36v-0.62091l-6.93018-8.12177c-4.30664,2.12305-9.43262,2.12305-13.73926,0l-6.93018,8.1217V36
		c0,7.16797,6.19043,13,13.7998,13S45.7998,43.16797,45.7998,36z M26,34c0-0.55273,0.44775-1,1-1s1,0.44727,1,1v2
		c0,0.55273-0.44775,1-1,1s-1-0.44727-1-1V34z M37.68945,42.72461C35.53223,44.77832,32.99219,45,32,45
		c-2.98193,0-4.97266-1.5918-5.69043-2.27637c-0.39941-0.38086-0.41455-1.01465-0.0332-1.41406
		c0.38086-0.39844,1.01465-0.41406,1.41406-0.0332C28.11426,41.68066,29.67773,43,32,43c0.75146,0,2.67627-0.16797,4.31055-1.72461
		c0.39941-0.37891,1.03418-0.36426,1.41357,0.03516C38.10498,41.70996,38.08936,42.34375,37.68945,42.72461z M38,36
		c0,0.55273-0.44775,1-1,1s-1-0.44727-1-1v-2c0-0.55273,0.44775-1,1-1s1,0.44727,1,1V36z"/>
	<path d="M19.62207,20c0,0.18457,0.01416,0.3667,0.04248,0.54492C18.72656,21.46289,18.2002,22.68945,18.2002,24v8.29742
		l5.92773-6.94635c0.31055-0.36377,0.83496-0.45605,1.25098-0.22266c4.08398,2.29688,9.1582,2.29688,13.24219,0
		c0.41602-0.23389,0.94092-0.14111,1.25098,0.22266l5.92773,6.94647V24c0-1.31055-0.52637-2.53711-1.46436-3.45508
		C44.36377,20.3667,44.37793,20.18457,44.37793,20c0-2.02148-1.72461-3.6665-3.84473-3.6665
		c-0.76807,0-1.50928,0.2207-2.1333,0.62256c-0.95166-0.61279-2.22461-0.77832-3.30469-0.45264C34.38623,15.57666,33.24316,15,32,15
		s-2.38623,0.57666-3.09521,1.50342c-1.08057-0.32568-2.35303-0.16016-3.30469,0.45264
		c-0.62402-0.40186-1.36523-0.62256-2.1333-0.62256C21.34668,16.3335,19.62207,17.97852,19.62207,20z"/>
</g>
</svg>
