<svg id="Layer_6" data-name="Layer 6" xmlns="http://www.w3.org/2000/svg" viewBox="0 0 64 64"><title>Face recognition</title><path d="M45.15,58.3a2,2,0,0,1,.46-1.68,2.07,2.07,0,0,1,1.57-.73h5a3.75,3.75,0,0,0,3.75-3.75v-4.8a2.16,2.16,0,0,1,1.71-2.19,2,2,0,0,1,1.68.46A2.07,2.07,0,0,1,60,47.18v6.89A5.94,5.94,0,0,1,54.07,60H47.34A2.17,2.17,0,0,1,45.15,58.3ZM47.34,8.11h4.8a3.75,3.75,0,0,1,3.75,3.75v4.8a2.16,2.16,0,0,0,1.71,2.19,2,2,0,0,0,1.68-.46A2.07,2.07,0,0,0,60,16.82V9.93A5.94,5.94,0,0,0,54.07,4H47.18a2.07,2.07,0,0,0-1.57.73,2,2,0,0,0-.46,1.68A2.16,2.16,0,0,0,47.34,8.11ZM51,35.5a4,4,0,0,0-.09-3.65c-.32-.53-.83-1.16-1.41-1.2a1.88,1.88,0,0,0-1.28.62s0,0-.05.05c.07.76.1,1.54.1,2.32a24.74,24.74,0,0,1-.72,6.06A9.82,9.82,0,0,0,51,35.5ZM16.62,27.61a44.26,44.26,0,0,0,4.63-2.24,43.82,43.82,0,0,0,6.17-4.2,1,1,0,0,1,.65-.24.82.82,0,0,1,.22,0,1,1,0,0,1,.69.57,10.33,10.33,0,0,0,4.27,4.06A32.2,32.2,0,0,0,39.85,28a21.29,21.29,0,0,1-2.15-2A21.58,21.58,0,0,1,35,22.45a1,1,0,0,1,1.33-1.4c2.16,1.18,3.93,2.09,5.59,2.85.33.16.69.31,1,.47a15.11,15.11,0,0,1,4.33,2.49l.15.13c-.91-4.5-3.35-12-9.86-11.77a1,1,0,0,1-.51-.11,14.89,14.89,0,0,0-21.2,12.82Zm29.6,6A23.42,23.42,0,0,0,45.56,28a15.69,15.69,0,0,0-3.42-1.83l-1.09-.48c-.53-.24-1.06-.5-1.62-.77a21.46,21.46,0,0,0,1.88,1.68l.13.12A2,2,0,0,1,40,30.05a1.86,1.86,0,0,1-.52-.07,33.92,33.92,0,0,1-7.17-2.66,13.38,13.38,0,0,1-4.47-3.9,46,46,0,0,1-5.57,3.69,42.68,42.68,0,0,1-4.31,2.11,23.91,23.91,0,0,0-.41,4.42,21.2,21.2,0,0,0,1.25,7.41A13.52,13.52,0,0,0,31.87,50.3a13.49,13.49,0,0,0,13-9A21.1,21.1,0,0,0,46.22,33.64ZM5.7,18.85a2,2,0,0,0,1.68-.46,2.07,2.07,0,0,0,.73-1.57v-5a3.75,3.75,0,0,1,3.75-3.75h5a2.07,2.07,0,0,0,1.57-.73,2,2,0,0,0,.46-1.68A2.17,2.17,0,0,0,16.66,4H9.93A5.94,5.94,0,0,0,4,9.93v6.73A2.17,2.17,0,0,0,5.7,18.85ZM9.93,60h6.89a2.07,2.07,0,0,0,1.57-.73,2,2,0,0,0,.46-1.68,2.16,2.16,0,0,0-2.19-1.71h-4.8a3.75,3.75,0,0,1-3.75-3.75v-5a2.07,2.07,0,0,0-.73-1.57,2,2,0,0,0-1.33-.49l-.35,0A2.17,2.17,0,0,0,4,47.34v6.73A5.94,5.94,0,0,0,9.93,60Zm4.62-29.36c-.58.05-1.09.68-1.41,1.2A4,4,0,0,0,13,35.31a9.7,9.7,0,0,0,3.2,4.14,25,25,0,0,1-.66-5.81q0-1.29.12-2.55A1.57,1.57,0,0,0,14.55,30.65Z"/></svg>