<svg width="24" height="24" viewBox="0 0 24 24" fill="none" xmlns="http://www.w3.org/2000/svg">
<path d="M4.5 21C4.1 21 3.75 20.85 3.45 20.55C3.15 20.25 3 19.9 3 19.5V4.5C3 4.1 3.15 3.75 3.45 3.45C3.75 3.15 4.1 3 4.5 3H11.225C11.4375 3 11.6156 3.07229 11.7594 3.21687C11.9031 3.36147 11.975 3.54064 11.975 3.75437C11.975 3.96812 11.9031 4.14583 11.7594 4.2875C11.6156 4.42917 11.4375 4.5 11.225 4.5H4.5V19.5H11.225C11.4375 19.5 11.6156 19.5723 11.7594 19.7169C11.9031 19.8615 11.975 20.0406 11.975 20.2544C11.975 20.4681 11.9031 20.6458 11.7594 20.7875C11.6156 20.9292 11.4375 21 11.225 21H4.5ZM18.125 12.75H9.75C9.5375 12.75 9.35938 12.6777 9.21563 12.5331C9.07188 12.3885 9 12.2094 9 11.9956C9 11.7819 9.07188 11.6042 9.21563 11.4625C9.35938 11.3208 9.5375 11.25 9.75 11.25H18.075L16.05 9.225C15.9 9.075 15.8292 8.9 15.8375 8.7C15.8458 8.5 15.925 8.325 16.075 8.175C16.225 8.025 16.4042 7.95 16.6125 7.95C16.8208 7.95 17 8.025 17.15 8.175L20.475 11.5C20.625 11.65 20.7 11.825 20.7 12.025C20.7 12.225 20.625 12.4 20.475 12.55L17.175 15.85C17.0283 16 16.8542 16.0708 16.6525 16.0625C16.4508 16.0542 16.2717 15.975 16.1152 15.825C15.9717 15.675 15.9 15.4958 15.9 15.2875C15.9 15.0792 15.975 14.9 16.125 14.75L18.125 12.75Z" fill="#EB5757"/>
</svg>
