<svg width="50" height="50" viewBox="0 0 50 50" fill="none" xmlns="http://www.w3.org/2000/svg">
<path d="M0 25C0 11.1929 11.1929 0 25 0C38.8071 0 50 11.1929 50 25C50 38.8071 38.8071 50 25 50H0V25Z" fill="#C6F7FE"/>
<path d="M31.8987 21.2418L31.7251 21.4181C32.2932 22.5261 32.5766 23.7571 32.5754 25.1113C32.583 26.4982 32.2335 27.863 31.5616 29.0703C30.8875 30.2927 29.9755 31.2372 28.8255 31.9039C27.6961 32.5591 26.4603 32.8912 25.1182 32.9001C25.0919 32.9001 25.0633 32.9001 25.0369 32.9001C24.567 32.9008 24.0979 32.8597 23.635 32.7773C22.8323 32.6348 22.0587 32.357 21.3461 31.9556C21.3133 31.9389 21.2829 31.92 21.2502 31.9015C20.9782 31.7451 20.7167 31.5703 20.4676 31.3785L31.1717 20.5068L33.4824 18.1603L34.4531 17.1742L37.5 14.0766L37.4264 14H25.0451H24.9815C21.8247 14.0166 19.2098 15.1895 17.1367 17.5186C15.2405 19.6462 14.2923 22.1587 14.292 25.0563C14.292 26.9851 14.7293 28.7531 15.6039 30.3606L17.9933 27.9347C17.6615 27.0317 17.494 26.075 17.4989 25.1113C17.4986 22.9148 18.239 21.043 19.7201 19.4958C21.1876 17.9641 22.9415 17.1906 24.9819 17.1752H25.0369C26.0912 17.1752 27.072 17.3806 27.9793 17.7915C28.3045 17.9385 28.6181 18.1107 28.9173 18.3067L18.4445 28.9433L16.1538 31.2709L13.5117 33.9554L11.5 36H25.1182C28.2338 35.9825 30.7855 34.8899 32.7735 32.7223C34.7757 30.5372 35.7776 27.9828 35.7791 25.0591C35.7791 22.8124 35.2138 20.7995 34.0832 19.0204L31.8987 21.2418Z" fill="#B3261E"/>
</svg>
