<svg width="344" height="286" viewBox="0 0 344 286" fill="none" xmlns="http://www.w3.org/2000/svg">
<path d="M269.2 94.05L266.9 96.34C274.4 110.713 278.14 126.713 278.12 144.34C278.22 162.357 273.608 180.087 264.74 195.77C256.343 211.149 243.843 223.896 228.63 232.59C213.734 241.086 196.878 245.547 179.73 245.53C179.38 245.53 179.01 245.53 178.66 245.53C172.456 245.538 166.262 245.006 160.15 243.94C149.559 242.085 139.352 238.475 129.95 233.26C129.51 233.04 129.11 232.8 128.68 232.56C125.089 230.526 121.638 228.255 118.35 225.76L259.65 84.49L290.12 54.05L302.93 41.24L343.15 1L342.15 0H178.76C181.76 0 184.62 0.1 187.5 0.25C184.62 0.1 181.72 0 178.76 0H177.93C136.263 0.22 101.75 15.46 74.39 45.72C49.3567 73.3333 36.84 105.963 36.84 143.61C36.84 168.663 42.6133 191.633 54.16 212.52L85.69 180.99C81.3089 169.26 79.0963 156.831 79.16 144.31C79.16 115.77 88.9333 91.4367 108.48 71.31C127.813 51.41 150.963 41.36 177.93 41.16H178.66C192.024 41.0432 205.26 43.7702 217.49 49.16C221.781 51.071 225.92 53.3075 229.87 55.85L91.65 194.1L61.42 224.33L41.81 243.94L26.56 259.2L0 285.77H179.73C220.85 285.55 254.517 271.36 280.73 243.2C307.17 214.8 320.397 181.61 320.41 143.63C320.41 114.45 312.947 88.2967 298.02 65.17L269.2 94.05Z" fill="#279A48"/>
</svg>
