<svg width="204" height="204" viewBox="0 0 204 204" fill="none" xmlns="http://www.w3.org/2000/svg">
<g clip-path="url(#clip0_1185_773)">
<circle opacity="0.1" cx="117" cy="117" r="117" fill="#279A48"/>
<path d="M152.447 99.6188L151.626 100.438C154.312 105.582 155.652 111.297 155.646 117.585C155.682 124.024 154.029 130.361 150.853 135.966C147.666 141.642 143.353 146.027 137.916 149.122C132.576 152.164 126.734 153.706 120.388 153.748C120.263 153.748 120.128 153.748 120.004 153.748C117.782 153.751 115.564 153.56 113.375 153.177C109.58 152.516 105.922 151.226 102.553 149.362C102.398 149.285 102.254 149.197 102.1 149.111C100.813 148.385 99.5775 147.574 98.3997 146.683L149.009 96.2066L159.935 85.3118L164.524 80.7378L178.93 66.3558L178.582 66H120.042H119.741C104.816 66.0772 92.4525 71.5228 82.6508 82.3368C73.6855 92.2163 69.2022 103.882 69.2008 117.334C69.2008 126.289 71.2684 134.498 75.4037 141.961L86.7008 130.693C85.1315 126.501 84.3387 122.06 84.361 117.585C84.361 107.386 87.8625 98.6957 94.8653 91.5126C101.802 84.4009 110.094 80.8093 119.741 80.7378H120.004C124.988 80.7378 129.626 81.6916 133.915 83.5992C135.453 84.282 136.936 85.0817 138.35 85.9913L88.8343 135.377L78.0034 146.184L65.5117 158.647L56 168.14H120.388C135.119 168.059 147.184 162.986 156.583 152.922C166.049 142.777 170.786 130.917 170.793 117.342C170.793 106.911 168.121 97.5655 162.775 89.3049L152.447 99.6188Z" fill="#279A48"/>
</g>
<defs>
<clipPath id="clip0_1185_773">
<rect width="234" height="234" fill="white"/>
</clipPath>
</defs>
</svg>
