<svg width="30" height="30" viewBox="0 0 30 30" fill="none" xmlns="http://www.w3.org/2000/svg">
<rect width="30" height="30" rx="6" fill="#F1F4F9"/>
<path fill-rule="evenodd" clip-rule="evenodd" d="M13.2002 20.6489V20.5488C13.2002 19.9236 13.5433 19.3459 14.1002 19.0333C14.6571 18.7207 15.3433 18.7207 15.9002 19.0333C16.4571 19.3459 16.8002 19.9236 16.8002 20.5488V20.6489C16.8002 21.2741 16.4571 21.8518 15.9002 22.1644C15.3433 22.477 14.6571 22.477 14.1002 22.1644C13.5433 21.8518 13.2002 21.2741 13.2002 20.6489ZM13.2002 15.0493V14.9492C13.2002 14.324 13.5433 13.7463 14.1002 13.4337C14.6571 13.1211 15.3433 13.1211 15.9002 13.4337C16.4571 13.7463 16.8002 14.324 16.8002 14.9492V15.0493C16.8002 15.6745 16.4571 16.2522 15.9002 16.5648C15.3433 16.8774 14.6571 16.8774 14.1002 16.5648C13.5433 16.2522 13.2002 15.6745 13.2002 15.0493ZM13.2002 9.45034V9.34955C13.2002 8.72436 13.5433 8.14666 14.1002 7.83405C14.6571 7.52146 15.3433 7.52146 15.9002 7.83405C16.4571 8.14666 16.8002 8.72436 16.8002 9.34955V9.44965C16.8002 10.0748 16.4571 10.6526 15.9002 10.9652C15.3433 11.2777 14.6571 11.2777 14.1002 10.9652C13.5433 10.6526 13.2002 10.0748 13.2002 9.44965V9.45034Z" fill="#999999"/>
</svg>
