<svg width="148" height="49" viewBox="0 0 148 49" fill="none" xmlns="http://www.w3.org/2000/svg">
<rect x="1.08911" y="1.12988" width="146" height="47" rx="15.5" fill="white"/>
<rect x="1.08911" y="1.12988" width="146" height="47" rx="15.5" stroke="#E7E7E7"/>
<path d="M22.0891 32.6297C21.6891 32.6297 21.3391 32.4797 21.0391 32.1797C20.7391 31.8797 20.5891 31.5297 20.5891 31.1297V28.3047C20.5891 28.0922 20.6614 27.9141 20.806 27.7703C20.9506 27.6266 21.1298 27.5547 21.3435 27.5547C21.5572 27.5547 21.7349 27.6266 21.8766 27.7703C22.0183 27.9141 22.0891 28.0922 22.0891 28.3047V31.1297H35.0891V28.3047C35.0891 28.0922 35.1614 27.9141 35.306 27.7703C35.4506 27.6266 35.6298 27.5547 35.8435 27.5547C36.0572 27.5547 36.2349 27.6266 36.3766 27.7703C36.5183 27.9141 36.5891 28.0922 36.5891 28.3047V31.1297C36.5891 31.5297 36.4391 31.8797 36.1391 32.1797C35.8391 32.4797 35.4891 32.6297 35.0891 32.6297H22.0891ZM27.8391 19.5297L25.3641 22.0047C25.2174 22.1547 25.0433 22.2255 24.8416 22.2172C24.6399 22.2089 24.4609 22.1297 24.3043 21.9797C24.1609 21.8297 24.0891 21.6505 24.0891 21.4422C24.0891 21.2339 24.1641 21.0547 24.3141 20.9047L28.0641 17.1547C28.1474 17.0714 28.2319 17.013 28.3174 16.9797C28.403 16.9464 28.4947 16.9297 28.5924 16.9297C28.6902 16.9297 28.7808 16.9464 28.8641 16.9797C28.9474 17.013 29.0308 17.0714 29.1141 17.1547L32.8891 20.9297C33.0391 21.0797 33.1141 21.2547 33.1141 21.4547C33.1141 21.6547 33.0424 21.8297 32.8989 21.9797C32.7424 22.1297 32.5599 22.2047 32.3516 22.2047C32.1433 22.2047 31.9641 22.1297 31.8141 21.9797L29.3391 19.5297V28.0547C29.3391 28.2672 29.2668 28.4453 29.1222 28.5891C28.9776 28.7328 28.7985 28.8047 28.5847 28.8047C28.371 28.8047 28.1933 28.7328 28.0516 28.5891C27.9099 28.4453 27.8391 28.2672 27.8391 28.0547V19.5297Z" fill="#107AD3"/>
<path d="M51.8371 30.8219C51.0371 30.8219 50.3384 30.6619 49.7411 30.3419C49.1438 30.0219 48.6798 29.5099 48.3491 28.8059C48.0291 28.1019 47.8691 27.1792 47.8691 26.0379V20.1659H49.7251V26.1819C49.7251 26.9392 49.8104 27.5419 49.9811 27.9899C50.1624 28.4272 50.4131 28.7419 50.7331 28.9339C51.0531 29.1152 51.4211 29.2059 51.8371 29.2059C52.2638 29.2059 52.6371 29.1152 52.9571 28.9339C53.2878 28.7419 53.5438 28.4272 53.7251 27.9899C53.9171 27.5419 54.0131 26.9392 54.0131 26.1819V20.1659H55.7891V26.0379C55.7891 27.1792 55.6291 28.1019 55.3091 28.8059C54.9891 29.5099 54.5304 30.0219 53.9331 30.3419C53.3464 30.6619 52.6478 30.8219 51.8371 30.8219ZM58.2415 33.7339V22.7739H59.7615L59.8895 23.6059H59.9535C60.2842 23.3285 60.6522 23.0885 61.0575 22.8859C61.4735 22.6832 61.8948 22.5819 62.3215 22.5819C63.3028 22.5819 64.0602 22.9445 64.5935 23.6699C65.1375 24.3952 65.4095 25.3659 65.4095 26.5819C65.4095 27.4779 65.2495 28.2459 64.9295 28.8859C64.6095 29.5152 64.1935 29.9952 63.6815 30.3259C63.1802 30.6565 62.6362 30.8219 62.0495 30.8219C61.7082 30.8219 61.3668 30.7472 61.0255 30.5979C60.6842 30.4379 60.3535 30.2245 60.0335 29.9579L60.0815 31.2699V33.7339H58.2415ZM61.6655 29.3019C62.1882 29.3019 62.6255 29.0725 62.9775 28.6139C63.3295 28.1552 63.5055 27.4832 63.5055 26.5979C63.5055 25.8085 63.3722 25.1952 63.1055 24.7579C62.8388 24.3205 62.4068 24.1019 61.8095 24.1019C61.2548 24.1019 60.6788 24.3952 60.0815 24.9819V28.6459C60.3695 28.8805 60.6468 29.0512 60.9135 29.1579C61.1802 29.2539 61.4308 29.3019 61.6655 29.3019ZM69.0647 30.8219C68.4141 30.8219 67.9501 30.6245 67.6727 30.2299C67.4061 29.8352 67.2727 29.2965 67.2727 28.6139V19.3339H69.1127V28.7099C69.1127 28.9339 69.1554 29.0939 69.2407 29.1899C69.3261 29.2752 69.4167 29.3179 69.5127 29.3179C69.5554 29.3179 69.5927 29.3179 69.6247 29.3179C69.6674 29.3072 69.7261 29.2965 69.8007 29.2859L70.0407 30.6619C69.9341 30.7045 69.7954 30.7419 69.6247 30.7739C69.4647 30.8059 69.2781 30.8219 69.0647 30.8219ZM74.8325 30.8219C74.1818 30.8219 73.5738 30.6619 73.0085 30.3419C72.4432 30.0112 71.9845 29.5419 71.6325 28.9339C71.2805 28.3152 71.1045 27.5739 71.1045 26.7099C71.1045 25.8352 71.2805 25.0939 71.6325 24.4859C71.9845 23.8672 72.4432 23.3979 73.0085 23.0779C73.5738 22.7472 74.1818 22.5819 74.8325 22.5819C75.4938 22.5819 76.1072 22.7472 76.6725 23.0779C77.2378 23.3979 77.6965 23.8672 78.0485 24.4859C78.4005 25.0939 78.5765 25.8352 78.5765 26.7099C78.5765 27.5739 78.4005 28.3152 78.0485 28.9339C77.6965 29.5419 77.2378 30.0112 76.6725 30.3419C76.1072 30.6619 75.4938 30.8219 74.8325 30.8219ZM74.8325 29.3179C75.4085 29.3179 75.8618 29.0779 76.1925 28.5979C76.5232 28.1179 76.6885 27.4885 76.6885 26.7099C76.6885 25.9205 76.5232 25.2859 76.1925 24.8059C75.8618 24.3259 75.4085 24.0859 74.8325 24.0859C74.2565 24.0859 73.8032 24.3259 73.4725 24.8059C73.1525 25.2859 72.9925 25.9205 72.9925 26.7099C72.9925 27.4885 73.1525 28.1179 73.4725 28.5979C73.8032 29.0779 74.2565 29.3179 74.8325 29.3179ZM82.1142 30.8219C81.4316 30.8219 80.8716 30.6085 80.4342 30.1819C80.0076 29.7552 79.7942 29.2005 79.7942 28.5179C79.7942 27.6752 80.1622 27.0245 80.8982 26.5659C81.6342 26.0965 82.8076 25.7765 84.4182 25.6059C84.4076 25.1899 84.2956 24.8325 84.0822 24.5339C83.8796 24.2245 83.5116 24.0699 82.9782 24.0699C82.5942 24.0699 82.2156 24.1445 81.8422 24.2939C81.4796 24.4432 81.1222 24.6245 80.7702 24.8379L80.0982 23.6059C80.5356 23.3285 81.0262 23.0885 81.5702 22.8859C82.1249 22.6832 82.7116 22.5819 83.3302 22.5819C84.3116 22.5819 85.0422 22.8752 85.5222 23.4619C86.0129 24.0379 86.2582 24.8752 86.2582 25.9739V30.6299H84.7382L84.6102 29.7659H84.5462C84.1942 30.0645 83.8156 30.3152 83.4102 30.5179C83.0156 30.7205 82.5836 30.8219 82.1142 30.8219ZM82.7062 29.3819C83.0262 29.3819 83.3142 29.3072 83.5702 29.1579C83.8369 28.9979 84.1196 28.7845 84.4182 28.5179V26.7579C83.3516 26.8965 82.6102 27.1045 82.1942 27.3819C81.7782 27.6485 81.5702 27.9792 81.5702 28.3739C81.5702 28.7259 81.6769 28.9819 81.8902 29.1419C82.1036 29.3019 82.3756 29.3819 82.7062 29.3819ZM91.2122 30.8219C90.2309 30.8219 89.4469 30.4592 88.8602 29.7339C88.2736 29.0085 87.9802 28.0005 87.9802 26.7099C87.9802 25.8565 88.1349 25.1205 88.4442 24.5019C88.7642 23.8832 89.1802 23.4085 89.6922 23.0779C90.2042 22.7472 90.7429 22.5819 91.3082 22.5819C91.7562 22.5819 92.1349 22.6619 92.4442 22.8219C92.7642 22.9712 93.0736 23.1792 93.3722 23.4459L93.3082 22.1819V19.3339H95.1482V30.6299H93.6282L93.5002 29.7819H93.4362C93.1482 30.0699 92.8122 30.3152 92.4282 30.5179C92.0442 30.7205 91.6389 30.8219 91.2122 30.8219ZM91.6602 29.3019C92.2469 29.3019 92.7962 29.0085 93.3082 28.4219V24.7579C93.0416 24.5125 92.7749 24.3419 92.5082 24.2459C92.2416 24.1499 91.9749 24.1019 91.7082 24.1019C91.2069 24.1019 90.7749 24.3312 90.4122 24.7899C90.0602 25.2379 89.8842 25.8725 89.8842 26.6939C89.8842 27.5365 90.0389 28.1819 90.3482 28.6299C90.6576 29.0779 91.0949 29.3019 91.6602 29.3019ZM100.855 30.6299V20.1659H107.175V21.7339H102.711V24.6939H106.519V26.2619H102.711V30.6299H100.855ZM108.851 30.6299V22.7739H110.691V30.6299H108.851ZM109.779 21.3979C109.448 21.3979 109.182 21.3019 108.979 21.1099C108.776 20.9179 108.675 20.6619 108.675 20.3419C108.675 20.0325 108.776 19.7819 108.979 19.5899C109.182 19.3979 109.448 19.3019 109.779 19.3019C110.11 19.3019 110.376 19.3979 110.579 19.5899C110.782 19.7819 110.883 20.0325 110.883 20.3419C110.883 20.6619 110.782 20.9179 110.579 21.1099C110.376 21.3019 110.11 21.3979 109.779 21.3979ZM114.83 30.8219C114.18 30.8219 113.716 30.6245 113.438 30.2299C113.172 29.8352 113.038 29.2965 113.038 28.6139V19.3339H114.878V28.7099C114.878 28.9339 114.921 29.0939 115.006 29.1899C115.092 29.2752 115.182 29.3179 115.278 29.3179C115.321 29.3179 115.358 29.3179 115.39 29.3179C115.433 29.3072 115.492 29.2965 115.566 29.2859L115.806 30.6619C115.7 30.7045 115.561 30.7419 115.39 30.7739C115.23 30.8059 115.044 30.8219 114.83 30.8219ZM120.742 30.8219C120.017 30.8219 119.361 30.6619 118.774 30.3419C118.187 30.0112 117.723 29.5419 117.382 28.9339C117.041 28.3152 116.87 27.5739 116.87 26.7099C116.87 25.8565 117.041 25.1205 117.382 24.5019C117.734 23.8832 118.187 23.4085 118.742 23.0779C119.297 22.7472 119.878 22.5819 120.486 22.5819C121.201 22.5819 121.798 22.7419 122.278 23.0619C122.758 23.3712 123.121 23.8085 123.366 24.3739C123.611 24.9285 123.734 25.5739 123.734 26.3099C123.734 26.6939 123.707 26.9925 123.654 27.2059H118.662C118.747 27.8992 118.998 28.4379 119.414 28.8219C119.83 29.2059 120.353 29.3979 120.982 29.3979C121.323 29.3979 121.638 29.3499 121.926 29.2539C122.225 29.1472 122.518 29.0032 122.806 28.8219L123.43 29.9739C123.057 30.2192 122.641 30.4219 122.182 30.5819C121.723 30.7419 121.243 30.8219 120.742 30.8219ZM118.646 25.9579H122.134C122.134 25.3499 122.001 24.8752 121.734 24.5339C121.467 24.1819 121.067 24.0059 120.534 24.0059C120.075 24.0059 119.665 24.1765 119.302 24.5179C118.95 24.8485 118.731 25.3285 118.646 25.9579ZM127.683 30.8219C127.15 30.8219 126.617 30.7205 126.083 30.5179C125.55 30.3045 125.091 30.0432 124.707 29.7339L125.571 28.5499C125.923 28.8165 126.275 29.0299 126.627 29.1899C126.979 29.3499 127.353 29.4299 127.747 29.4299C128.174 29.4299 128.489 29.3392 128.691 29.1579C128.894 28.9765 128.995 28.7525 128.995 28.4859C128.995 28.2619 128.91 28.0805 128.739 27.9419C128.579 27.7925 128.371 27.6645 128.115 27.5579C127.859 27.4405 127.593 27.3285 127.315 27.2219C126.974 27.0939 126.633 26.9392 126.291 26.7579C125.961 26.5659 125.689 26.3259 125.475 26.0379C125.262 25.7392 125.155 25.3712 125.155 24.9339C125.155 24.2405 125.411 23.6752 125.923 23.2379C126.435 22.8005 127.129 22.5819 128.003 22.5819C128.558 22.5819 129.054 22.6779 129.491 22.8699C129.929 23.0619 130.307 23.2805 130.627 23.5259L129.779 24.6459C129.502 24.4432 129.219 24.2832 128.931 24.1659C128.654 24.0379 128.361 23.9739 128.051 23.9739C127.657 23.9739 127.363 24.0592 127.171 24.2299C126.979 24.3899 126.883 24.5925 126.883 24.8379C126.883 25.1472 127.043 25.3819 127.363 25.5419C127.683 25.7019 128.057 25.8565 128.483 26.0059C128.846 26.1339 129.198 26.2939 129.539 26.4859C129.881 26.6672 130.163 26.9072 130.387 27.2059C130.622 27.5045 130.739 27.8992 130.739 28.3899C130.739 29.0619 130.478 29.6379 129.955 30.1179C129.433 30.5872 128.675 30.8219 127.683 30.8219Z" fill="#107AD3"/>
</svg>
