<?xml version="1.0"?><svg fill="#000000" xmlns="http://www.w3.org/2000/svg"  viewBox="0 0 24 24" width="24px" height="24px">    <path d="M 12 2 C 7.582 2 4 5.582 4 10 L 4 11 L 4 11.902344 C 3.426291 12.449411 3 13.153146 3 14 C 3 15.241968 3.8575508 16.162904 4.9433594 16.613281 C 6.2443933 19.723094 8.8502365 22 12 22 L 14 22 A 1.0001 1.0001 0 1 0 14 20 L 12 20 C 9.7415517 20 7.6909574 18.299502 6.6601562 15.613281 A 1.0001 1.0001 0 0 0 5.8613281 14.980469 C 5.3688308 14.912712 5 14.515121 5 14 C 5 13.615008 5.1944088 13.312973 5.4980469 13.138672 A 1.0001 1.0001 0 0 0 6 12.271484 L 6 12 L 6 11 C 6 10.448 6.448 10 7 10 L 17 10 C 17.552 10 18 10.448 18 11 L 18 12 L 18 16 L 13.912109 16 A 1.5 1.5 0 0 0 12.5 15 A 1.5 1.5 0 0 0 11 16.5 A 1.5 1.5 0 0 0 12.392578 17.994141 A 1.0001 1.0001 0 0 0 12.5 18 L 19 18 L 20 18 C 21.1 18 22 17.1 22 16 L 22 14 C 22 12.9 21.1 12 20 12 L 20 10 C 20 5.582 16.418 2 12 2 z"/></svg>