<svg width="50" height="50" viewBox="0 0 50 50" fill="none" xmlns="http://www.w3.org/2000/svg">
<rect width="50" height="50" rx="25" fill="black"/>
<path d="M31.6893 13.2812C32.4674 13.2812 33.0955 13.9094 33.0955 14.6875V16.8812C33.0955 17.4859 32.158 17.4859 32.158 16.8812V14.6875C32.158 14.4297 31.9471 14.2187 31.6893 14.2187H29.4955C28.8908 14.2187 28.8908 13.2812 29.4955 13.2812H31.6893Z" fill="white"/>
<path d="M31.6893 28.534C31.9471 28.534 32.158 28.323 32.158 28.0652V25.8715C32.158 25.2668 33.0955 25.2668 33.0955 25.8715V28.0652C33.0955 28.8434 32.4674 29.4715 31.6893 29.4715H29.4955C28.8908 29.4715 28.8908 28.534 29.4955 28.534H31.6893Z" fill="white"/>
<path d="M18.311 29.4715C17.5329 29.4715 16.9048 28.8434 16.9048 28.0652V25.8715C16.9048 25.2668 17.8423 25.2668 17.8423 25.8715V28.0652C17.8423 28.323 18.0532 28.534 18.311 28.534H20.5048C21.1095 28.534 21.1095 29.4715 20.5048 29.4715H18.311Z" fill="white"/>
<path d="M20.5048 14.2187H18.311C18.0532 14.2187 17.8423 14.4297 17.8423 14.6875V16.8812C17.8423 17.4859 16.9048 17.4859 16.9048 16.8812V14.6875C16.9048 13.9094 17.5329 13.2812 18.311 13.2812H20.5048C21.1095 13.2812 21.1095 14.2187 20.5048 14.2187Z" fill="white"/>
<path d="M29.5843 19.9704H20.4155C20.9827 17.861 22.9937 16.3751 25.178 16.4595C27.2358 16.5345 29.0499 17.9876 29.5843 19.9704Z" fill="white"/>
<path d="M32.6266 21.8457H17.3734C16.7687 21.8457 16.7687 20.9082 17.3734 20.9082H32.6266C33.2313 20.9082 33.2313 21.8457 32.6266 21.8457Z" fill="white"/>
<path d="M20.439 22.7832H29.5608L29.2655 23.866C28.6093 25.8301 27.4515 28.5301 24.9999 28.5348C22.5483 28.5301 21.3905 25.8301 20.7343 23.866L20.439 22.7832Z" fill="white"/>
<path d="M34.572 35.7812H15.4282V34.9703C15.4282 33.4328 16.4923 32.1062 17.9923 31.7687C18.911 31.5719 19.8345 31.45 20.7626 31.3469C21.8407 31.225 22.6985 30.3813 22.8298 29.3031L22.8813 28.8672C23.5142 29.2656 24.2501 29.4766 25.0001 29.4719C25.7501 29.4766 26.486 29.2656 27.1188 28.8672L27.1704 29.3031C27.3017 30.3813 28.1595 31.225 29.2376 31.3469C30.1657 31.45 31.0939 31.5719 32.0079 31.7687C33.5079 32.1062 34.572 33.4328 34.572 34.9703V35.7812Z" fill="white"/>
</svg>
